<?xml version="1.0" standalone="no"?>
<!DOCTYPE svg PUBLIC "-//W3C//DTD SVG 1.1//EN" "http://www.w3.org/Graphics/SVG/1.1/DTD/svg11.dtd" >
<svg>
<metadata>
Created by FontForge 20120731 at Mon Jul  1 09:01:44 2019
 By www
Copyright 1990-1999 as an unpublished work by Bitstream Inc.  All rights reserved.  Confidential.
</metadata>
<defs>
<font id="Swiss721BT-BoldRounded" horiz-adv-x="500" >
  <font-face 
    font-family="Swiss 721"
    font-weight="700"
    font-stretch="normal"
    units-per-em="1000"
    panose-1="0 0 0 0 0 0 0 0 0 0"
    ascent="800"
    descent="-200"
    x-height="531"
    cap-height="729"
    bbox="-144 -236 1253 985"
    underline-thickness="108"
    underline-position="-53"
    stemh="119"
    stemv="141"
    unicode-range="U+0020-FB02"
  />
<missing-glyph horiz-adv-x="284" 
 />
    <glyph glyph-name=".notdef" horiz-adv-x="284" 
 />
    <glyph glyph-name="space" unicode=" " horiz-adv-x="284" 
 />
    <glyph glyph-name="exclam" unicode="!" horiz-adv-x="330" 
d="M85 70c0 44 36 80 80 80c45 0 80 -35 80 -80c0 -44 -37 -79 -80 -79c-42 0 -80 36 -80 79zM92 498c-2 21 -4 49 -4 82c0 44 0 79 5 103c5 27 33 47 72 47c73 0 77 -43 77 -139c0 -42 -2 -74 -4 -93l-29 -254c-4 -32 -13 -44 -44 -44c-30 0 -40 12 -44 44z" />
    <glyph glyph-name="quotedbl" unicode="&#x22;" horiz-adv-x="331" 
d="M39 702h94v-273h-94v273zM198 702h94v-273h-94v273z" />
    <glyph glyph-name="numbersign" unicode="#" horiz-adv-x="769" 
d="M346 715h108l-71 -203h118l72 203h108l-72 -203h138l-36 -98h-137l-41 -118h142l-35 -98h-142l-72 -203h-108l72 203h-119l-73 -203h-107l71 203h-140l37 98h138l42 118h-146l36 98h145zM346 414l-43 -118h123l42 118h-122z" />
    <glyph glyph-name="dollar" unicode="$" horiz-adv-x="567" 
d="M255 729c0 20 10 30 29 30s29 -10 29 -30v-33c119 -5 195 -80 195 -152c0 -34 -24 -58 -60 -58c-33 0 -47 14 -63 42c-18 30 -27 55 -72 60v-178c152 -47 219 -102 219 -213c0 -124 -78 -202 -219 -214v-63c0 -20 -10 -30 -29 -30s-29 10 -29 30v64
c-133 9 -211 80 -211 161c0 41 26 66 64 66c32 0 47 -18 66 -53c20 -37 38 -59 81 -67v202c-146 37 -209 91 -209 202c0 117 79 198 209 201v33zM255 591c-51 -7 -78 -36 -78 -83c0 -41 25 -67 78 -83v166zM313 275v-184c53 7 82 39 82 91c0 47 -26 75 -82 93z" />
    <glyph glyph-name="percent" unicode="%" horiz-adv-x="860" 
d="M587 679c8 14 19 21 32 21c19 0 34 -15 34 -34c0 -6 -3 -12 -7 -20l-376 -646c-8 -14 -18 -20 -30 -20c-19 0 -35 15 -35 33c0 6 3 14 7 21zM214 699c99 0 181 -82 181 -182s-81 -181 -181 -181c-102 0 -182 79 -182 181s80 182 182 182zM214 593c-43 0 -76 -33 -76 -76
s33 -76 76 -76c42 0 76 34 76 76s-34 76 -76 76zM647 343c99 0 181 -80 181 -181c0 -100 -81 -182 -181 -182c-102 0 -182 80 -182 182s80 181 182 181zM647 238c-43 0 -76 -33 -76 -76s33 -77 76 -77c42 0 76 35 76 77s-34 76 -76 76z" />
    <glyph glyph-name="ampersand" unicode="&#x26;" horiz-adv-x="701" 
d="M378 383l103 -127c28 64 52 96 88 96c31 0 57 -24 57 -50c0 -39 -23 -86 -67 -143l47 -58c16 -20 24 -37 24 -55c0 -33 -23 -55 -62 -55c-22 0 -46 12 -57 25l-36 44c-58 -53 -128 -80 -202 -80c-134 0 -226 89 -226 210c0 94 47 154 152 213c-43 56 -69 98 -69 148
c0 98 69 168 186 168c112 0 178 -63 178 -157c0 -74 -37 -129 -116 -179zM400 153l-130 161c-57 -35 -82 -65 -82 -115c0 -54 41 -97 99 -97c41 0 80 17 113 51zM309 468c44 26 63 53 63 94c0 33 -22 54 -57 54c-36 0 -58 -21 -58 -55c0 -26 19 -54 52 -93z" />
    <glyph glyph-name="quoteright" unicode="&#x2019;" horiz-adv-x="260" 
d="M146 586c-11 -10 -22 -13 -36 -13c-41 0 -67 27 -67 74c0 49 32 82 83 82c53 0 91 -49 91 -126c0 -98 -78 -171 -151 -171c-16 0 -25 10 -25 29c0 25 22 26 57 43c31 15 49 40 49 69c0 4 0 9 -1 13z" />
    <glyph glyph-name="parenleft" unicode="(" horiz-adv-x="370" 
d="M264 719c31 0 52 -21 52 -47c0 -27 -25 -78 -49 -156c-27 -88 -39 -170 -39 -261c0 -74 7 -141 22 -203c24 -100 64 -168 64 -214c0 -27 -20 -47 -48 -47c-29 0 -52 20 -76 64c-68 125 -106 272 -106 400c0 105 31 230 95 365c31 65 51 99 85 99z" />
    <glyph glyph-name="parenright" unicode=")" horiz-adv-x="370" 
d="M109 -209c-31 0 -52 20 -52 46c0 28 25 78 49 156c27 88 39 170 39 261c0 73 -7 142 -22 204c-25 102 -65 169 -65 214c0 27 21 46 49 46c29 0 51 -20 75 -64c68 -125 106 -272 106 -400c0 -105 -31 -229 -95 -364c-31 -65 -50 -99 -84 -99z" />
    <glyph glyph-name="asterisk" unicode="*" 
d="M197 673v5c0 33 19 51 52 51s51 -19 51 -53v-3l-2 -94l87 33c9 3 18 5 25 5c26 0 47 -24 47 -57c0 -23 -13 -39 -39 -46l-93 -25l64 -80c9 -11 14 -23 14 -34c0 -26 -27 -52 -56 -52c-15 0 -31 9 -42 26l-55 85l-60 -86c-13 -18 -25 -28 -41 -28c-30 0 -57 26 -57 52
c0 12 4 24 13 34l70 83l-97 25c-26 7 -40 22 -40 46c0 33 21 57 48 57c7 0 14 -2 23 -5l92 -33z" />
    <glyph glyph-name="plus" unicode="+" horiz-adv-x="833" 
d="M367 596h99v-249h243v-97h-243v-250h-99v250h-243v97h243v249z" />
    <glyph glyph-name="comma" unicode="," horiz-adv-x="284" 
d="M158 11c-10 -9 -21 -14 -35 -14c-41 0 -68 28 -68 75c0 49 32 81 83 81c53 0 92 -48 92 -125c0 -98 -78 -172 -151 -172c-16 0 -26 11 -26 30c0 25 22 25 57 42c31 15 49 40 49 70c0 4 0 9 -1 13z" />
    <glyph glyph-name="hyphen" unicode="-" horiz-adv-x="334" 
d="M232 333c48 0 72 -22 72 -67c0 -44 -24 -67 -72 -67h-130c-48 0 -72 22 -72 67c0 44 24 67 72 67h130z" />
    <glyph glyph-name="period" unicode="." horiz-adv-x="284" 
d="M58 74c0 45 37 83 83 83c47 0 84 -36 84 -83s-39 -84 -84 -84s-83 39 -83 84z" />
    <glyph glyph-name="slash" unicode="/" horiz-adv-x="317" 
d="M239 713c5 17 13 25 28 25c19 0 34 -13 34 -29c0 -4 -1 -8 -2 -13l-222 -763c-5 -17 -14 -25 -29 -25c-20 0 -33 11 -33 29c0 4 1 8 2 13z" />
    <glyph glyph-name="zero" unicode="0" horiz-adv-x="567" 
d="M283 699c169 0 253 -120 253 -360s-83 -358 -253 -358s-252 118 -252 359c0 240 83 359 252 359zM283 582c-77 0 -107 -78 -107 -242s30 -243 107 -243s108 79 108 243s-31 242 -108 242z" />
    <glyph glyph-name="one" unicode="1" horiz-adv-x="567" 
d="M246 478h-122c-34 0 -51 17 -51 50c0 25 12 42 29 46c24 5 58 4 99 18c31 10 43 33 60 60c16 25 24 47 63 47s60 -21 60 -60v-575c0 -49 -24 -73 -69 -73s-69 24 -69 73v414z" />
    <glyph glyph-name="two" unicode="2" horiz-adv-x="567" 
d="M196 119h267c41 0 63 -21 63 -60s-21 -59 -63 -59h-343c-59 0 -86 23 -86 74c0 84 74 157 210 244c85 55 134 88 134 164c0 61 -40 100 -104 100c-59 0 -92 -29 -108 -91c-10 -41 -22 -66 -66 -66c-39 0 -63 25 -63 68c0 41 23 96 62 137c45 46 103 69 176 69
c155 0 245 -86 245 -215c0 -110 -58 -166 -164 -238c-84 -57 -145 -86 -160 -127z" />
    <glyph glyph-name="three" unicode="3" horiz-adv-x="567" 
d="M421 371c71 -31 109 -87 109 -163c0 -139 -97 -228 -257 -228c-62 0 -110 11 -152 38c-55 36 -86 88 -86 136c0 43 25 70 63 70c46 0 60 -34 85 -88c11 -23 43 -41 86 -41c75 0 114 37 114 107c0 55 -29 90 -87 101c-39 7 -75 -1 -75 51c0 48 34 43 76 55
c45 13 66 42 66 90c0 55 -35 88 -92 88c-36 0 -66 -14 -80 -37c-10 -16 -14 -40 -30 -60c-12 -15 -30 -23 -50 -23c-38 0 -61 22 -61 60c0 90 89 171 226 171c142 0 229 -75 229 -189c0 -61 -28 -108 -84 -138z" />
    <glyph glyph-name="four" unicode="4" horiz-adv-x="567" 
d="M82 151c-42 0 -66 26 -66 72c0 40 25 78 58 130l166 262c36 57 77 85 128 85c58 0 86 -31 86 -93v-345h34c39 0 59 -19 59 -55c0 -37 -20 -56 -59 -56h-34v-87c0 -48 -24 -73 -68 -73c-45 0 -68 25 -68 73v87h-236zM321 558l-190 -299h190v299z" />
    <glyph glyph-name="five" unicode="5" horiz-adv-x="567" 
d="M189 679h246c42 0 63 -20 63 -59s-21 -59 -63 -59h-242l-18 -140c29 23 68 36 119 36c140 0 233 -93 233 -230c0 -150 -102 -247 -261 -247c-133 0 -221 75 -221 143c0 40 28 69 64 69c30 0 45 -17 65 -47c24 -38 45 -53 92 -53c75 0 117 45 117 128
c0 77 -43 125 -116 125c-66 0 -108 -48 -149 -48c-40 0 -60 24 -60 70c0 7 0 15 1 25l26 205c9 70 25 82 104 82z" />
    <glyph glyph-name="six" unicode="6" horiz-adv-x="567" 
d="M281 340c-60 0 -101 -45 -101 -118c0 -81 44 -130 112 -130c64 0 103 47 103 129c0 77 -40 119 -114 119zM178 405c32 32 77 49 133 49c137 0 226 -90 226 -229c0 -147 -98 -246 -245 -246c-170 0 -260 119 -260 345c0 245 98 375 276 375c118 0 199 -72 199 -135
c0 -38 -23 -64 -59 -64c-28 0 -43 11 -61 32c-25 30 -39 56 -96 56c-70 0 -108 -61 -113 -183z" />
    <glyph glyph-name="seven" unicode="7" horiz-adv-x="567" 
d="M84 560c-42 0 -64 21 -64 60s22 59 64 59h381c48 0 73 -23 73 -63c0 -35 -27 -63 -62 -107c-42 -52 -89 -117 -131 -218c-48 -116 -55 -201 -64 -244c-7 -36 -32 -57 -69 -57c-47 0 -72 24 -72 71c0 100 68 295 236 499h-292z" />
    <glyph glyph-name="eight" unicode="8" horiz-adv-x="567" 
d="M283 587c-61 0 -98 -34 -98 -84c0 -53 34 -84 98 -84s99 30 99 84c0 51 -37 84 -99 84zM432 367c69 -32 103 -88 103 -169c0 -135 -94 -218 -252 -218c-160 0 -251 82 -251 218c0 81 32 133 103 169c-59 32 -83 74 -83 138c0 122 84 195 231 195s233 -73 233 -192
c0 -65 -28 -112 -84 -141zM284 310c-67 0 -110 -43 -110 -112c0 -63 42 -102 110 -102s109 40 109 107c0 64 -43 107 -109 107z" />
    <glyph glyph-name="nine" unicode="9" horiz-adv-x="567" 
d="M277 586c-68 0 -108 -46 -108 -126c0 -78 40 -122 108 -122c67 0 107 44 107 118c0 80 -44 130 -107 130zM386 274c-32 -32 -76 -49 -132 -49c-137 0 -227 89 -227 228c0 147 98 246 245 246c169 0 261 -119 261 -345c0 -244 -99 -375 -276 -375c-117 0 -197 70 -197 133
c0 36 26 62 62 62c34 0 54 -27 87 -63c10 -11 33 -21 60 -21c76 0 112 60 117 184z" />
    <glyph glyph-name="colon" unicode=":" horiz-adv-x="307" 
d="M70 74c0 45 37 83 83 83c47 0 83 -36 83 -83s-38 -84 -83 -84s-83 39 -83 84zM70 448c0 45 37 83 83 83c47 0 83 -36 83 -83s-38 -83 -83 -83s-83 38 -83 83z" />
    <glyph glyph-name="semicolon" unicode=";" horiz-adv-x="307" 
d="M169 11c-10 -9 -21 -14 -35 -14c-41 0 -67 28 -67 75c0 49 32 81 83 81c53 0 91 -48 91 -125c0 -98 -78 -172 -151 -172c-16 0 -25 11 -25 30c0 25 22 25 57 42c31 15 48 40 48 69c0 5 0 9 -1 14zM70 448c0 45 37 83 83 83c47 0 83 -36 83 -83s-38 -83 -83 -83
s-83 38 -83 83z" />
    <glyph glyph-name="less" unicode="&#x3c;" horiz-adv-x="833" 
d="M704 583v-107l-436 -178l436 -178v-107l-575 237v97z" />
    <glyph glyph-name="equal" unicode="=" horiz-adv-x="833" 
d="M124 452h585v-97h-585v97zM124 242h585v-97h-585v97z" />
    <glyph glyph-name="greater" unicode="&#x3e;" horiz-adv-x="833" 
d="M129 583l575 -236v-97l-575 -237v107l437 178l-437 178v107z" />
    <glyph glyph-name="question" unicode="?" horiz-adv-x="558" 
d="M200 70c0 44 35 80 79 80c45 0 80 -35 80 -80c0 -44 -36 -79 -80 -79c-43 0 -79 36 -79 79zM522 525c0 -61 -16 -98 -56 -141c-30 -33 -75 -54 -100 -86c-16 -21 -18 -43 -24 -56c-11 -24 -31 -36 -58 -36c-43 0 -69 23 -69 65c0 35 18 74 52 106c51 48 106 72 106 140
c0 61 -37 98 -94 98c-43 0 -73 -16 -93 -51c-21 -36 -28 -75 -85 -75c-38 0 -61 24 -61 65c0 39 21 83 60 120c47 44 103 64 176 64c153 0 246 -86 246 -213z" />
    <glyph glyph-name="at" unicode="@" horiz-adv-x="1000" 
d="M594 342c-8 53 -38 81 -85 81c-73 0 -138 -91 -138 -206c0 -60 27 -92 77 -92c52 0 103 42 120 111zM570 133c-36 -55 -82 -80 -145 -80c-104 0 -158 58 -158 166c0 158 105 275 236 275c53 0 91 -22 115 -64l26 48h87l-72 -292c-2 -8 -3 -15 -3 -20c0 -22 15 -34 46 -34
c24 0 53 12 79 37c56 52 85 123 85 206c0 152 -128 268 -324 268c-92 0 -171 -22 -236 -66c-110 -74 -172 -189 -172 -322c0 -200 146 -329 371 -329c106 0 209 33 295 93l40 -57c-100 -75 -212 -113 -333 -113c-127 0 -232 33 -312 94c-101 78 -151 180 -151 311
c0 109 35 209 101 290c96 117 233 179 400 179c113 0 212 -32 281 -85c88 -68 131 -155 131 -265c0 -108 -44 -201 -124 -265c-46 -37 -101 -56 -158 -56c-69 0 -104 27 -105 81z" />
    <glyph glyph-name="A" unicode="A" horiz-adv-x="686" 
d="M170 45c-12 -37 -35 -54 -72 -54c-43 0 -71 27 -71 65c0 13 2 25 7 38l199 559c21 60 38 76 109 76c72 0 87 -19 107 -74l203 -561c5 -13 7 -25 7 -38c0 -38 -29 -65 -72 -65c-37 0 -59 17 -71 54l-34 103h-279zM342 575l-100 -306h200z" />
    <glyph glyph-name="B" unicode="B" horiz-adv-x="704" 
d="M164 0c-73 0 -90 32 -90 113v493c0 81 17 113 90 113h249c149 0 226 -65 226 -182c0 -72 -28 -121 -86 -148c75 -30 111 -86 111 -170c0 -137 -92 -219 -262 -219h-238zM216 594v-153h169c71 0 105 23 105 78c0 56 -35 75 -106 75h-168zM216 318v-188h175
c81 0 119 27 119 93c0 70 -38 95 -120 95h-174z" />
    <glyph glyph-name="C" unicode="C" horiz-adv-x="744" 
d="M44 348c0 247 129 391 346 391c86 0 156 -23 221 -73c46 -35 71 -81 71 -118c0 -43 -27 -71 -70 -71c-25 0 -46 10 -67 30c-15 14 -22 33 -33 45c-32 37 -75 54 -129 54c-114 0 -188 -89 -188 -246c0 -158 71 -246 194 -246c56 0 100 18 127 50c15 18 20 35 28 45
c22 28 40 42 70 42c40 0 71 -30 71 -67c0 -33 -23 -81 -67 -120c-68 -60 -140 -84 -237 -84c-209 0 -337 140 -337 368z" />
    <glyph glyph-name="D" unicode="D" horiz-adv-x="727" 
d="M164 0c-73 0 -90 32 -90 113v493c0 81 17 113 90 113h192c220 0 328 -117 328 -360c0 -134 -42 -235 -117 -295c-70 -56 -148 -64 -251 -64h-152zM219 593v-463h119c137 0 195 67 195 229c0 160 -55 234 -177 234h-137z" />
    <glyph glyph-name="E" unicode="E" horiz-adv-x="653" 
d="M544 132c53 0 80 -22 80 -66c0 -43 -27 -66 -80 -66h-380c-73 0 -90 32 -90 113v493c0 81 17 113 90 113h361c53 0 80 -22 80 -63c0 -40 -27 -62 -80 -62h-305v-153h274c53 0 79 -21 79 -62c0 -39 -26 -61 -79 -61h-274v-186h324z" />
    <glyph glyph-name="F" unicode="F" horiz-adv-x="598" 
d="M220 70c0 -53 -24 -79 -73 -79c-47 0 -73 27 -73 79v536c0 81 17 113 90 113h342c53 0 80 -22 80 -63c0 -40 -27 -62 -80 -62h-286v-163h242c53 0 80 -22 80 -63c0 -40 -27 -62 -80 -62h-242v-236z" />
    <glyph glyph-name="G" unicode="G" horiz-adv-x="777" 
d="M574 266h-110c-37 0 -63 25 -63 64c0 37 24 59 63 59h159c60 0 86 -15 86 -67v-275c0 -44 -15 -65 -52 -65c-29 0 -47 17 -54 49l-11 54c-54 -72 -120 -105 -211 -105c-200 0 -338 150 -338 380c0 232 136 378 342 378c67 0 126 -13 177 -39c74 -38 112 -88 112 -135
c0 -42 -30 -72 -65 -72c-38 0 -57 18 -83 50c-37 47 -74 69 -135 69c-117 0 -194 -91 -194 -250s79 -250 201 -250c93 0 161 58 176 155z" />
    <glyph glyph-name="H" unicode="H" horiz-adv-x="743" 
d="M75 650c0 53 24 79 74 79c49 0 74 -26 74 -79v-199h297v199c0 53 24 79 74 79c49 0 75 -26 75 -79v-580c0 -53 -25 -79 -75 -79c-49 0 -74 26 -74 79v249h-297v-249c0 -53 -24 -79 -74 -79c-49 0 -74 26 -74 79v580z" />
    <glyph glyph-name="I" unicode="I" horiz-adv-x="307" 
d="M79 650c0 53 24 79 74 79c49 0 74 -26 74 -79v-580c0 -53 -24 -79 -74 -79c-49 0 -74 26 -74 79v580z" />
    <glyph glyph-name="J" unicode="J" horiz-adv-x="553" 
d="M336 650c0 53 24 79 74 79c49 0 74 -26 74 -79v-439c0 -64 -1 -114 -35 -157c-37 -48 -103 -74 -193 -74c-147 0 -233 74 -233 197c0 66 30 103 72 103c28 0 49 -12 59 -34c13 -27 9 -55 13 -80c6 -40 36 -62 87 -62c67 0 82 34 82 114v432z" />
    <glyph glyph-name="K" unicode="K" horiz-adv-x="656" 
d="M74 650c0 53 24 79 74 79c49 0 74 -26 74 -79v-226l271 283c13 13 32 22 51 22c39 0 68 -29 68 -63c0 -16 -6 -31 -16 -41l-195 -197l222 -304c16 -23 28 -40 28 -65c0 -40 -28 -69 -69 -69c-26 0 -52 14 -70 40l-213 299l-77 -76v-183c0 -53 -24 -79 -74 -79
c-49 0 -74 26 -74 79v580z" />
    <glyph glyph-name="L" unicode="L" horiz-adv-x="580" 
d="M164 0c-73 0 -90 32 -90 113v537c0 50 27 79 74 79c49 0 74 -26 74 -79v-518h272c58 0 89 -24 89 -64c0 -49 -28 -68 -89 -68h-330z" />
    <glyph glyph-name="M" unicode="M" horiz-adv-x="872" 
d="M213 79c0 -60 -21 -88 -69 -88c-50 0 -70 28 -70 88v537c0 81 17 113 90 113h52c73 0 82 -29 102 -107l118 -450l114 441c21 81 35 116 98 116h59c72 0 90 -32 90 -113v-537c0 -59 -21 -88 -69 -88c-49 0 -70 27 -70 88v501l-124 -490c-18 -70 -42 -99 -98 -99
c-54 0 -81 30 -99 99l-124 490v-501z" />
    <glyph glyph-name="N" unicode="N" horiz-adv-x="741" 
d="M220 79c0 -59 -23 -88 -73 -88c-51 0 -73 27 -73 88v537c0 81 17 113 90 113c62 0 80 -37 124 -111l233 -393v416c0 60 23 88 73 88c51 0 73 -28 73 -88v-539c0 -79 -18 -111 -80 -111c-64 0 -82 24 -116 81l-251 422v-415z" />
    <glyph glyph-name="O" unicode="O" horiz-adv-x="789" 
d="M394 738c215 0 352 -147 352 -379s-137 -379 -352 -379s-351 146 -351 379s136 379 351 379zM394 609c-125 0 -200 -90 -200 -250s75 -250 200 -250c126 0 202 90 202 250s-76 250 -202 250z" />
    <glyph glyph-name="P" unicode="P" horiz-adv-x="667" 
d="M222 70c0 -53 -24 -79 -74 -79c-49 0 -74 26 -74 79v536c0 81 17 113 90 113h230c152 0 230 -80 230 -231c0 -148 -78 -232 -220 -232h-182v-186zM223 594v-208h143c76 0 111 30 111 104c0 68 -35 104 -103 104h-151z" />
    <glyph glyph-name="Q" unicode="Q" horiz-adv-x="789" 
d="M564 210c19 35 32 85 32 149c0 160 -76 250 -202 250c-125 0 -200 -90 -200 -250s75 -250 200 -250c32 0 61 6 87 19l-42 41c-12 11 -18 25 -18 39c0 33 29 64 60 64c19 0 29 -9 43 -23zM669 109l43 -41c14 -14 20 -27 20 -43c0 -31 -28 -59 -61 -59c-15 0 -27 7 -41 20
l-45 44c-48 -32 -113 -50 -191 -50c-215 0 -351 146 -351 379s136 379 351 379s352 -147 352 -379c0 -103 -27 -188 -77 -250z" />
    <glyph glyph-name="R" unicode="R" horiz-adv-x="714" 
d="M222 70c0 -53 -24 -79 -74 -79c-49 0 -74 26 -74 79v536c0 81 17 113 90 113h259c156 0 231 -65 231 -204c0 -88 -38 -148 -107 -170c54 -18 81 -56 87 -121c4 -42 2 -74 6 -96c5 -31 13 -54 13 -71c0 -40 -28 -67 -74 -67c-82 0 -86 57 -93 163c-6 87 -10 127 -107 127
h-157v-210zM222 595v-190h174c75 0 110 29 110 95c0 62 -35 95 -103 95h-181z" />
    <glyph glyph-name="S" unicode="S" horiz-adv-x="667" 
d="M588 573c0 -39 -26 -65 -66 -65c-47 0 -60 30 -89 65c-25 30 -64 45 -117 45c-78 0 -121 -33 -121 -87c0 -67 59 -69 169 -97c70 -17 129 -32 174 -57c60 -34 88 -87 88 -165c0 -140 -104 -232 -282 -232c-85 0 -150 15 -219 64c-44 32 -71 79 -71 119c0 44 28 73 67 73
c53 0 63 -44 93 -80c29 -36 71 -52 128 -52c92 0 139 32 139 93c0 66 -60 78 -191 108c-162 37 -238 80 -238 217c0 134 98 216 272 216c79 0 143 -18 195 -55c43 -30 69 -76 69 -110z" />
    <glyph glyph-name="T" unicode="T" horiz-adv-x="612" 
d="M82 591c-48 0 -72 20 -72 63c0 42 24 64 72 64h448c48 0 72 -22 72 -64s-24 -63 -72 -63h-150v-521c0 -53 -24 -79 -74 -79c-49 0 -74 26 -74 79v521h-150z" />
    <glyph glyph-name="U" unicode="U" horiz-adv-x="717" 
d="M70 650c0 53 24 79 74 79c49 0 75 -26 75 -79v-380c0 -108 40 -160 139 -160c100 0 140 51 140 160v380c0 53 24 79 74 79c49 0 74 -26 74 -79v-396c0 -178 -103 -274 -287 -274c-186 0 -289 96 -289 274v396z" />
    <glyph glyph-name="V" unicode="V" horiz-adv-x="602" 
d="M395 67c-19 -55 -28 -76 -95 -76c-70 0 -78 25 -95 74l-189 554c-4 11 -6 22 -6 34c0 46 31 77 77 77c44 0 63 -28 79 -84l134 -465l134 464c16 55 45 84 86 84c42 0 71 -29 71 -70c0 -11 -2 -25 -7 -40z" />
    <glyph glyph-name="W" unicode="W" horiz-adv-x="934" 
d="M372 87c-15 -76 -30 -96 -91 -96c-63 0 -69 18 -91 95l-150 520c-5 19 -9 35 -9 48c0 45 30 75 72 75c45 0 62 -27 76 -86l105 -431l89 430c13 63 34 87 95 87c67 0 81 -30 94 -92l88 -425l100 415c17 69 32 102 81 102c44 0 67 -24 67 -73c0 -11 -3 -27 -8 -46
l-151 -523c-20 -70 -22 -96 -88 -96c-63 0 -75 20 -90 95l-94 465z" />
    <glyph glyph-name="X" unicode="X" horiz-adv-x="593" 
d="M62 590c-15 23 -29 42 -29 73c0 39 27 66 71 66c39 0 56 -27 85 -76l108 -185l116 200c24 41 40 61 79 61c44 0 72 -26 72 -63c0 -15 -6 -35 -17 -53l-158 -245l155 -256c11 -18 20 -35 20 -58c0 -36 -26 -64 -65 -64c-40 0 -60 19 -81 54l-121 205l-105 -179
c-32 -54 -46 -79 -88 -79c-45 0 -76 31 -76 70c0 15 5 29 14 44l163 262z" />
    <glyph glyph-name="Y" unicode="Y" horiz-adv-x="589" 
d="M40 590c-15 26 -23 48 -23 71c0 40 28 68 70 68c50 0 68 -28 92 -76l122 -244l118 259c19 42 44 61 80 61c44 0 73 -27 73 -59c0 -17 -6 -37 -16 -57l-181 -345v-198c0 -53 -24 -79 -74 -79c-49 0 -74 26 -74 79v198z" />
    <glyph glyph-name="Z" unicode="Z" horiz-adv-x="601" 
d="M92 589c-53 0 -78 21 -78 65c0 45 24 65 78 65h390c82 0 127 -9 127 -75c0 -17 -7 -34 -20 -50l-392 -465h314c54 0 80 -20 80 -64c0 -45 -25 -65 -80 -65h-389c-82 0 -120 16 -120 77c0 19 6 35 19 51l388 461h-317z" />
    <glyph glyph-name="bracketleft" unicode="[" horiz-adv-x="382" 
d="M206 -213c-73 0 -90 31 -90 112v707c0 81 17 113 90 113h113c37 0 56 -18 56 -53c0 -34 -19 -51 -56 -51h-71v-724h71c37 0 56 -18 56 -53c0 -34 -19 -51 -56 -51h-113z" />
    <glyph glyph-name="backslash" unicode="\" horiz-adv-x="317" 
d="M239 -67l-222 763c-1 5 -2 9 -2 13c0 18 13 29 33 29c15 0 24 -8 29 -25l222 -763c1 -5 2 -9 2 -13c0 -16 -15 -30 -34 -30c-15 0 -23 9 -28 26z" />
    <glyph glyph-name="bracketright" unicode="]" horiz-adv-x="382" 
d="M182 719c72 0 90 -32 90 -113v-707c0 -81 -18 -112 -90 -112h-113c-37 0 -55 17 -55 52c0 34 18 52 55 52h71v724h-71c-37 0 -55 17 -55 52c0 34 18 52 55 52h113z" />
    <glyph glyph-name="asciicircum" unicode="^" horiz-adv-x="1000" 
d="M438 713h123l235 -274h-115l-181 181l-182 -181h-115z" />
    <glyph glyph-name="underscore" unicode="_" 
d="M0 -136h500v-100h-500v100z" />
    <glyph glyph-name="quoteleft" unicode="&#x2018;" horiz-adv-x="260" 
d="M113 575c11 9 21 14 35 14c41 0 68 -28 68 -75c0 -49 -33 -81 -79 -81c-58 0 -96 47 -96 125c0 98 78 172 151 172c16 0 26 -11 26 -30c0 -25 -22 -25 -57 -42c-31 -15 -49 -40 -49 -70c0 -4 0 -9 1 -13z" />
    <glyph glyph-name="a" unicode="a" horiz-adv-x="562" 
d="M500 400v-302c0 -28 5 -49 5 -63c0 -33 -22 -54 -61 -54c-53 0 -77 26 -78 85c-35 -55 -94 -85 -171 -85c-101 0 -161 60 -161 165c0 102 48 146 157 169c66 14 118 14 149 24c14 5 22 18 22 40c0 44 -26 60 -87 60c-34 0 -61 -10 -81 -27c-23 -21 -40 -53 -79 -53
c-32 0 -57 25 -57 58c0 64 83 133 212 133c150 0 230 -54 230 -150zM364 261c-54 -25 -99 -28 -127 -36c-45 -13 -67 -30 -67 -71c0 -40 27 -64 74 -64c72 0 120 47 120 121v50z" />
    <glyph glyph-name="b" unicode="b" horiz-adv-x="613" 
d="M200 56c0 -41 -24 -65 -65 -65c-47 0 -70 26 -70 79v580c0 53 23 79 69 79s69 -26 69 -79v-185c35 55 88 84 157 84c124 0 218 -111 218 -286c0 -170 -91 -281 -220 -281c-69 0 -117 28 -158 90v-16zM322 426c-76 0 -119 -57 -119 -163c0 -104 42 -159 118 -159
c74 0 116 58 116 165c0 99 -45 157 -115 157z" />
    <glyph glyph-name="c" unicode="c" horiz-adv-x="551" 
d="M504 400c0 -32 -28 -58 -63 -58c-29 0 -47 16 -68 42c-24 29 -44 46 -86 46c-70 0 -104 -56 -104 -166c0 -103 38 -159 105 -159c31 0 52 10 72 33c23 27 37 64 80 64c36 0 65 -28 65 -63c0 -31 -17 -63 -53 -95c-48 -42 -102 -62 -169 -62c-154 0 -248 105 -248 284
c0 178 96 284 252 284c131 0 217 -80 217 -150z" />
    <glyph glyph-name="d" unicode="d" horiz-adv-x="615" 
d="M412 650c0 53 23 79 69 79s69 -26 69 -79v-580c0 -53 -23 -79 -71 -79c-42 0 -64 22 -64 65v16c-42 -62 -90 -90 -159 -90c-129 0 -220 111 -220 281c0 175 94 286 218 286c68 0 122 -29 158 -84v185zM293 426c-70 0 -115 -58 -115 -157c0 -107 41 -165 115 -165
c78 0 119 56 119 165c0 101 -44 157 -119 157z" />
    <glyph glyph-name="e" unicode="e" horiz-adv-x="570" 
d="M391 321c-3 72 -39 110 -105 110c-62 0 -98 -38 -104 -110h209zM182 228c3 -83 44 -128 115 -128c34 0 61 10 81 27c25 22 42 42 73 42c32 0 56 -23 56 -54c0 -22 -12 -44 -35 -66c-45 -43 -111 -67 -187 -67c-151 0 -250 108 -250 287c0 174 95 281 248 281
c156 0 254 -103 254 -261c0 -59 -23 -61 -76 -61h-279z" />
    <glyph glyph-name="f" unicode="f" horiz-adv-x="324" 
d="M226 431v-361c0 -53 -24 -79 -70 -79c-47 0 -69 26 -69 79v361h-31c-38 0 -57 17 -57 50s19 50 57 50h31v54c0 100 49 144 158 144c61 0 90 -20 90 -66c0 -30 -17 -49 -43 -49c-12 0 -23 2 -34 2c-26 0 -33 -11 -33 -43v-42h44c38 0 57 -16 57 -50c0 -33 -19 -50 -57 -50
h-43z" />
    <glyph glyph-name="g" unicode="g" horiz-adv-x="610" 
d="M409 75c-30 -52 -77 -74 -148 -74c-137 0 -227 105 -227 268c0 175 90 281 225 281c71 0 121 -27 153 -83v9c0 38 26 65 66 65c47 0 69 -26 69 -80v-426c0 -180 -70 -252 -264 -252c-132 0 -212 55 -212 118c0 36 27 63 65 63c25 0 41 -12 62 -29c27 -22 47 -39 92 -39
c95 0 119 38 119 132v47zM178 274c0 -100 42 -155 116 -155s115 54 115 157c0 98 -43 152 -117 152c-71 0 -114 -55 -114 -154z" />
    <glyph glyph-name="h" unicode="h" horiz-adv-x="602" 
d="M206 70c0 -53 -24 -79 -71 -79s-70 26 -70 79v580c0 53 23 79 70 79s71 -26 71 -79v-178c40 49 93 73 158 73c63 0 116 -23 146 -62c28 -37 29 -78 29 -129v-284c0 -53 -23 -79 -70 -79s-71 26 -71 79v208c0 97 -3 149 -83 149c-66 0 -109 -42 -109 -112v-245z" />
    <glyph glyph-name="i" unicode="i" horiz-adv-x="272" 
d="M61 654c0 41 34 75 75 75c42 0 75 -33 75 -75s-34 -75 -75 -75c-40 0 -75 35 -75 75zM207 70c0 -53 -24 -79 -71 -79s-71 26 -71 79v391c0 53 24 80 71 80s71 -27 71 -80v-391z" />
    <glyph glyph-name="j" unicode="j" horiz-adv-x="271" 
d="M65 461c0 53 24 80 71 80s71 -27 71 -80v-509c0 -116 -39 -169 -142 -169c-58 0 -89 23 -89 65c0 33 21 54 53 54c26 0 36 12 36 37v522zM61 654c0 41 34 75 75 75c42 0 75 -33 75 -75s-34 -75 -75 -75c-40 0 -75 35 -75 75z" />
    <glyph glyph-name="k" unicode="k" horiz-adv-x="554" 
d="M203 70c0 -53 -25 -79 -70 -79c-46 0 -68 26 -68 79v580c0 53 22 79 68 79c45 0 70 -26 70 -79v-308l141 159c21 24 36 39 64 39c35 0 65 -28 65 -59c0 -24 -17 -42 -41 -68l-74 -79l125 -215c14 -23 24 -41 24 -60c0 -40 -29 -68 -68 -68c-35 0 -59 15 -77 47l-105 188
l-54 -58v-98z" />
    <glyph glyph-name="l" unicode="l" horiz-adv-x="275" 
d="M67 650c0 53 24 79 71 79s71 -26 71 -79v-580c0 -53 -24 -79 -71 -79s-71 26 -71 79v580z" />
    <glyph glyph-name="m" unicode="m" horiz-adv-x="877" 
d="M492 472c37 51 88 77 151 77c106 0 174 -65 174 -174v-305c0 -53 -23 -79 -70 -79c-45 0 -70 27 -70 79v276c0 52 -30 81 -79 81c-54 0 -90 -37 -90 -101v-256c0 -53 -24 -79 -70 -79s-69 26 -69 79v275c0 53 -29 81 -77 81c-54 0 -90 -37 -90 -101v-255
c0 -53 -24 -79 -70 -79s-70 26 -70 79v391c0 52 24 80 67 80c40 0 63 -23 68 -68c37 51 86 77 147 77c67 0 113 -24 148 -78z" />
    <glyph glyph-name="n" unicode="n" horiz-adv-x="597" 
d="M204 70c0 -53 -24 -79 -71 -79s-71 26 -71 79v391c0 53 23 80 71 80c42 0 62 -21 65 -65l2 -18c34 57 90 92 162 92c117 0 175 -66 175 -188v-292c0 -53 -24 -79 -71 -79s-71 26 -71 79v251c0 72 -21 106 -82 106c-66 0 -109 -42 -109 -112v-245z" />
    <glyph glyph-name="o" unicode="o" horiz-adv-x="608" 
d="M304 550c167 0 269 -107 269 -284s-102 -284 -269 -284s-269 107 -269 284s102 284 269 284zM304 430c-79 0 -125 -58 -125 -164s46 -165 125 -165s124 59 124 165s-46 164 -124 164z" />
    <glyph glyph-name="p" unicode="p" horiz-adv-x="613" 
d="M203 66v-202c0 -53 -23 -79 -69 -79s-70 26 -70 79v597c0 53 23 80 71 80c42 0 62 -21 65 -65l2 -18c31 58 88 91 156 91c129 0 220 -111 220 -281c0 -175 -94 -286 -218 -286c-68 0 -122 29 -157 84zM319 427c-73 0 -116 -55 -116 -159c0 -106 43 -163 119 -163
c70 0 115 58 115 157c0 108 -42 165 -118 165z" />
    <glyph glyph-name="q" unicode="q" horiz-adv-x="613" 
d="M411 458l1 18c3 44 24 65 66 65c48 0 71 -27 71 -80v-597c0 -53 -24 -79 -70 -79s-69 26 -69 79v205c-39 -59 -88 -87 -155 -87c-129 0 -220 111 -220 281c0 175 94 286 218 286c69 0 122 -29 159 -86zM291 426c-70 0 -115 -58 -115 -159c0 -105 43 -163 116 -163
c78 0 118 56 118 165c0 101 -45 157 -119 157z" />
    <glyph glyph-name="r" unicode="r" horiz-adv-x="384" 
d="M194 431c29 71 75 110 122 110c48 0 75 -29 75 -73c0 -24 -8 -41 -23 -54c-21 -18 -48 -10 -80 -16c-54 -10 -84 -49 -84 -117v-211c0 -53 -24 -79 -71 -79s-71 26 -71 79v391c0 53 23 80 69 80c39 0 63 -23 63 -63v-47z" />
    <glyph glyph-name="s" unicode="s" horiz-adv-x="546" 
d="M232 213c-126 30 -184 73 -184 160c0 107 82 177 218 177c127 0 207 -57 207 -115c0 -33 -25 -57 -59 -57c-28 0 -48 19 -78 42c-14 11 -44 21 -70 21c-53 0 -79 -17 -79 -50c0 -30 28 -39 101 -55l44 -10c124 -27 183 -66 183 -159c0 -120 -86 -185 -249 -185
c-136 0 -219 65 -219 131c0 38 27 64 64 64c38 0 53 -27 78 -52c24 -24 53 -32 95 -32c58 0 88 20 88 53c0 34 -23 39 -85 54z" />
    <glyph glyph-name="t" unicode="t" horiz-adv-x="341" 
d="M86 431h-23c-38 0 -57 17 -57 50s19 50 57 50h23v72c0 53 23 79 70 79s71 -26 71 -79v-72h37c38 0 57 -16 57 -50c0 -33 -19 -50 -57 -50h-36v-294c0 -24 6 -33 31 -33c6 0 14 1 24 1c32 0 50 -19 50 -49c0 -46 -31 -65 -98 -65c-122 0 -149 43 -149 153v287z" />
    <glyph glyph-name="u" unicode="u" horiz-adv-x="597" 
d="M393 461c0 53 24 80 71 80s71 -27 71 -80v-391c0 -54 -23 -79 -71 -79c-42 0 -62 21 -65 65l-2 18c-34 -57 -90 -88 -162 -88c-117 0 -175 61 -175 183v292c0 53 24 80 71 80s71 -27 71 -80v-251c0 -72 21 -105 82 -105c66 0 109 41 109 111v245z" />
    <glyph glyph-name="v" unicode="v" horiz-adv-x="481" 
d="M12 435c-5 13 -7 26 -7 37c0 40 31 69 71 69c39 0 59 -21 72 -65l94 -326l96 329c12 42 35 63 69 63c43 0 70 -24 70 -63c0 -11 -3 -25 -8 -40l-134 -374c-25 -69 -39 -74 -109 -74c-52 0 -63 20 -82 74z" />
    <glyph glyph-name="w" unicode="w" horiz-adv-x="765" 
d="M314 65c-13 -62 -30 -74 -88 -74c-57 0 -71 13 -88 74l-104 370c-4 15 -6 27 -6 37c0 40 29 69 67 69c35 0 59 -21 69 -65l74 -313l60 303c12 59 32 75 85 75s73 -15 86 -75l64 -303l74 316c10 41 35 63 66 63c41 0 66 -24 66 -64c0 -11 -3 -24 -7 -39l-105 -374
c-18 -63 -34 -74 -87 -74c-54 0 -72 14 -86 74l-72 315z" />
    <glyph glyph-name="x" unicode="x" horiz-adv-x="463" 
d="M43 435c-8 12 -12 26 -12 41c0 35 30 64 67 64c28 0 49 -22 74 -64l63 -105l62 108c23 40 43 61 76 61c38 0 64 -26 64 -56c0 -17 -3 -32 -12 -45l-108 -166l114 -177c9 -14 14 -30 14 -45c0 -35 -29 -61 -71 -61c-33 0 -52 23 -77 65l-67 113l-64 -113
c-25 -43 -46 -63 -80 -63c-40 0 -68 28 -68 61c0 13 5 28 15 43l117 175z" />
    <glyph glyph-name="y" unicode="y" horiz-adv-x="537" 
d="M40 435c-5 13 -7 26 -7 37c0 39 31 69 71 69c39 0 60 -21 73 -65l97 -328l95 330c12 43 34 64 69 64c42 0 70 -24 70 -62c0 -10 -3 -24 -9 -41l-185 -534c-28 -82 -75 -120 -152 -120c-61 0 -91 17 -91 59c0 37 19 51 60 57c38 5 56 16 66 55l6 20z" />
    <glyph glyph-name="z" unicode="z" horiz-adv-x="506" 
d="M86 418c-42 0 -63 20 -63 57c0 38 21 56 63 56h322c58 0 86 -21 86 -67c0 -21 -8 -40 -25 -57l-278 -289h243c44 0 66 -20 66 -59s-22 -59 -66 -59h-367c-41 0 -66 25 -66 62c0 18 7 36 21 51l286 305h-222z" />
    <glyph glyph-name="braceleft" unicode="{" 
d="M431 721v-102c-8 0 -16 1 -23 1c-72 0 -84 -25 -84 -98v-117c0 -88 -18 -127 -101 -146c83 -19 101 -57 101 -145v-118c0 -73 12 -97 84 -97c7 0 15 1 23 1v-102c-13 0 -25 -1 -37 -1c-60 0 -104 6 -137 24c-47 27 -51 71 -51 142v123c0 88 -29 123 -109 123
c-6 0 -13 -1 -20 -1v102c7 0 14 -1 20 -1c80 0 109 36 109 124v122c0 71 4 116 51 143c33 18 77 24 137 24c12 0 24 -1 37 -1z" />
    <glyph glyph-name="bar" unicode="|" 
d="M200 764h101v-1000h-101v1000z" />
    <glyph glyph-name="braceright" unicode="}" 
d="M70 721h33c62 0 108 -5 141 -24c46 -26 51 -71 51 -142v-123c0 -88 29 -123 109 -123c6 0 13 1 20 1v-102h-18c-82 0 -111 -33 -111 -122v-123c0 -71 -4 -116 -51 -142c-33 -18 -77 -24 -137 -24c-12 0 -24 1 -37 1v102c8 0 16 -1 23 -1c71 0 84 24 84 97v117
c0 88 17 127 101 146c-83 19 -101 58 -101 146v118c0 73 -13 97 -84 97c-7 0 -15 -1 -23 -1v102z" />
    <glyph glyph-name="asciitilde" unicode="~" horiz-adv-x="833" 
d="M747 392v-108c-65 -44 -124 -67 -185 -67c-30 0 -60 5 -90 15c-69 23 -130 49 -197 49c-59 0 -118 -27 -188 -77v108c70 47 133 70 189 70c58 0 102 -15 144 -29c48 -16 93 -36 144 -36c59 0 116 26 183 75z" />
    <glyph glyph-name="exclamdown" unicode="&#xa1;" horiz-adv-x="330" 
d="M237 223c2 -20 5 -48 5 -83c0 -42 -1 -77 -6 -103c-5 -27 -32 -46 -71 -46c-30 0 -48 8 -66 31c-9 11 -11 50 -11 118c0 33 1 61 4 83l29 253c4 32 13 44 44 44c29 0 39 -12 43 -44zM245 650c0 -44 -36 -80 -80 -80s-80 35 -80 80c0 44 37 80 80 80c42 0 80 -38 80 -80z
" />
    <glyph glyph-name="cent" unicode="&#xa2;" horiz-adv-x="567" 
d="M348 607c4 14 12 21 24 21c15 0 27 -11 27 -23c0 -3 -1 -7 -2 -11l-16 -60c78 -27 123 -83 123 -134c0 -31 -28 -57 -64 -57c-44 0 -58 36 -96 72l-87 -312c10 -1 19 -2 27 -2c34 0 54 11 76 37c23 27 37 64 80 64c36 0 65 -29 65 -63c0 -74 -100 -158 -222 -158
c-16 0 -34 1 -56 4l-24 -86c-4 -14 -12 -20 -24 -20c-16 0 -27 10 -27 24c0 3 1 6 2 10l24 86c-96 41 -148 132 -148 266c0 180 96 285 250 285c16 0 34 -1 52 -4zM303 432c-8 1 -16 2 -24 2c-69 0 -106 -57 -106 -170c0 -65 15 -112 43 -140z" />
    <glyph glyph-name="sterling" unicode="&#xa3;" horiz-adv-x="567" 
d="M234 366h110c19 0 29 -9 29 -27s-9 -27 -29 -27h-90c5 -23 8 -43 8 -60c0 -55 -33 -99 -95 -155c42 19 75 29 104 29c47 0 92 -23 136 -23c40 0 65 23 86 23c30 0 51 -23 51 -59c0 -30 -14 -45 -45 -61s-73 -26 -105 -26c-70 0 -131 39 -196 39c-59 0 -98 -39 -127 -39
s-52 23 -52 54c0 18 8 36 19 46c58 52 104 81 104 152c0 21 -8 49 -23 80h-57c-19 0 -29 9 -29 27s9 27 29 27h24c-26 52 -41 96 -41 138c0 112 88 194 232 194c69 0 124 -16 166 -49c47 -37 76 -93 76 -134c0 -43 -24 -67 -65 -67c-42 0 -54 21 -70 59
c-20 48 -33 82 -102 82c-62 0 -96 -34 -96 -90c0 -37 24 -77 48 -133z" />
    <glyph glyph-name="fraction" unicode="&#x2044;" horiz-adv-x="167" 
d="M243 689c8 14 18 21 32 21c19 0 36 -16 36 -35c0 -6 -2 -13 -7 -21l-381 -653c-8 -13 -19 -21 -33 -21c-19 0 -34 15 -34 34c0 5 2 13 7 21z" />
    <glyph glyph-name="yen" unicode="&#xa5;" horiz-adv-x="600" 
d="M41 591c-9 15 -13 30 -13 43c0 35 35 66 76 66c22 0 42 -14 56 -41l148 -288l136 287c13 27 32 41 55 41c40 0 73 -30 73 -58c0 -14 -4 -28 -11 -42l-83 -158h85c19 0 29 -9 29 -26c0 -18 -10 -28 -29 -28h-114l-33 -62h147c19 0 29 -10 29 -27c0 -18 -10 -27 -29 -27
l-176 -1l-8 -17l-1 -187c0 -50 -24 -75 -70 -75s-70 25 -70 75v187l-10 17l-191 1c-19 0 -28 8 -28 26s9 28 28 28h159l-36 62h-123c-19 0 -28 9 -28 27s9 27 28 27h91z" />
    <glyph glyph-name="florin" unicode="&#x192;" horiz-adv-x="567" 
d="M205 383h-72c-34 0 -52 17 -52 48s19 48 52 48h89c24 180 71 259 194 259c75 0 113 -25 113 -71c0 -30 -21 -52 -52 -52c-16 0 -31 7 -46 7c-47 0 -59 -45 -71 -143h81c33 0 52 -17 52 -48c0 -32 -18 -48 -52 -48h-93l-47 -294c-18 -111 -33 -184 -56 -220
c-37 -59 -81 -82 -155 -82c-61 0 -93 23 -93 64c0 37 20 59 53 59c12 0 20 -3 26 -3c43 0 57 27 67 90z" />
    <glyph glyph-name="section" unicode="&#xa7;" 
d="M174 423c-26 -15 -39 -34 -39 -56c0 -31 27 -47 78 -73l109 -56c26 15 39 32 39 54c0 31 -21 45 -58 64zM388 196c38 -34 57 -74 57 -123c0 -96 -75 -172 -192 -172c-119 0 -191 70 -191 137c0 38 25 63 57 63c47 0 51 -30 72 -67c12 -22 34 -32 64 -32c40 0 68 25 68 58
c0 34 -24 51 -70 74l-117 59c-74 37 -110 85 -110 145c0 57 28 102 84 131c-32 28 -48 63 -48 106c0 97 71 163 184 163c110 0 181 -65 181 -131c0 -40 -21 -62 -54 -62c-39 0 -48 30 -70 65c-13 20 -33 30 -61 30c-38 0 -62 -21 -62 -51c0 -28 28 -48 90 -77l82 -38
c83 -39 122 -85 122 -150c0 -59 -30 -104 -86 -128z" />
    <glyph glyph-name="currency" unicode="&#xa4;" horiz-adv-x="567" 
d="M27 314h53v26c0 13 0 25 1 37h-51c-19 0 -28 9 -28 27s9 27 28 27h55c23 188 123 268 255 268c83 0 174 -48 202 -130c5 -13 7 -28 7 -41c0 -26 -9 -50 -34 -61c-12 -6 -23 -8 -33 -8c-24 0 -39 14 -50 25c-14 16 -19 37 -27 56c-13 28 -39 42 -70 42
c-67 0 -97 -52 -106 -151h193c19 0 29 -9 29 -26c0 -18 -10 -28 -29 -28h-197v-63h156c19 0 29 -9 29 -26c0 -18 -10 -28 -29 -28h-154c7 -109 37 -163 112 -163c33 0 66 10 81 41c8 19 13 40 27 56c8 9 26 25 51 25c10 0 20 -2 32 -8c24 -12 33 -32 33 -54
c0 -15 -5 -32 -10 -48c-10 -30 -39 -64 -67 -83c-44 -30 -97 -45 -152 -45c-141 0 -231 88 -251 279h-56c-19 0 -28 9 -28 27s9 27 28 27z" />
    <glyph glyph-name="quotesingle" unicode="'" horiz-adv-x="172" 
d="M39 702h94v-273h-94v273z" />
    <glyph glyph-name="quotedblleft" unicode="&#x201c;" horiz-adv-x="440" 
d="M95 575c11 9 21 14 35 14c41 0 68 -28 68 -75c0 -49 -33 -81 -79 -81c-58 0 -96 47 -96 125c0 98 78 172 151 172c16 0 26 -11 26 -30c0 -25 -23 -25 -58 -42c-31 -15 -48 -40 -48 -69c0 -5 0 -9 1 -14zM310 575c11 9 21 14 35 14c41 0 68 -28 68 -75
c0 -49 -33 -81 -79 -81c-58 0 -95 47 -95 125c0 98 78 172 151 172c16 0 25 -11 25 -30c0 -25 -22 -25 -57 -42c-31 -15 -49 -40 -49 -70c0 -4 0 -9 1 -13z" />
    <glyph glyph-name="guillemotleft" unicode="&#xab;" horiz-adv-x="447" 
d="M126 404c11 9 20 13 30 13c22 0 44 -22 44 -46c0 -12 -6 -23 -19 -34l-82 -71l80 -71c14 -12 22 -19 22 -34c0 -25 -22 -48 -43 -48c-10 0 -20 3 -29 11l-94 79c-22 18 -33 34 -33 60c0 23 11 46 33 65zM337 404c11 9 20 13 30 13c22 0 44 -22 44 -46
c0 -12 -6 -23 -19 -34l-82 -71l80 -71c14 -12 22 -19 22 -34c0 -25 -22 -48 -43 -48c-10 0 -20 3 -29 11l-93 79c-22 18 -34 34 -34 60c0 23 12 46 34 65z" />
    <glyph glyph-name="guilsinglleft" unicode="&#x2039;" horiz-adv-x="237" 
d="M126 404c11 9 20 13 30 13c22 0 44 -22 44 -46c0 -12 -6 -23 -19 -34l-82 -71l80 -71c14 -12 22 -19 22 -34c0 -25 -22 -48 -43 -48c-10 0 -20 3 -29 11l-94 79c-22 18 -33 34 -33 60c0 23 11 46 33 65z" />
    <glyph glyph-name="guilsinglright" unicode="&#x203a;" horiz-adv-x="237" 
d="M110 126c-11 -9 -20 -14 -30 -14c-22 0 -44 23 -44 47c0 12 7 23 20 34l81 71l-80 71c-13 12 -22 19 -22 34c0 25 21 48 46 48c7 0 17 -5 26 -12l94 -79c22 -18 33 -35 33 -60c0 -23 -11 -45 -33 -64z" />
    <glyph glyph-name="fi" unicode="&#xfb01;" horiz-adv-x="584" 
d="M226 431v-361c0 -53 -24 -79 -70 -79c-47 0 -69 26 -69 79v361h-31c-38 0 -57 17 -57 50s19 50 57 50h31v54c0 100 49 144 158 144c61 0 90 -20 90 -66c0 -30 -17 -49 -43 -49c-12 0 -23 2 -34 2c-26 0 -33 -11 -33 -43v-42h44c38 0 57 -16 57 -50c0 -33 -19 -50 -57 -50
h-43zM518 70c0 -53 -24 -79 -70 -79s-69 26 -69 79v391c0 53 23 80 69 80s70 -27 70 -80v-391zM373 654c0 41 34 75 75 75c42 0 75 -33 75 -75s-34 -75 -75 -75c-40 0 -75 35 -75 75z" />
    <glyph glyph-name="fl" unicode="&#xfb02;" horiz-adv-x="583" 
d="M226 431v-361c0 -53 -24 -79 -70 -79c-47 0 -69 26 -69 79v361h-31c-38 0 -57 17 -57 50s19 50 57 50h31v54c0 100 49 144 158 144c61 0 90 -20 90 -66c0 -30 -17 -49 -43 -49c-12 0 -23 2 -34 2c-26 0 -33 -11 -33 -43v-42h44c38 0 57 -16 57 -50c0 -33 -19 -50 -57 -50
h-43zM379 650c0 53 24 79 69 79c46 0 70 -26 70 -79v-580c0 -53 -24 -79 -70 -79s-69 26 -69 79v580z" />
    <glyph glyph-name="endash" unicode="&#x2013;" 
d="M442 320c39 0 58 -18 58 -54s-20 -54 -58 -54h-384c-39 0 -58 18 -58 54s20 54 58 54h384z" />
    <glyph glyph-name="dagger" unicode="&#x2020;" 
d="M192 667c0 42 19 62 58 62c38 0 58 -21 58 -62v-159h113c33 0 50 -15 50 -46c0 -30 -18 -46 -50 -46h-113v-469c0 -42 -19 -63 -58 -63c-38 0 -58 22 -58 63v469h-113c-33 0 -50 15 -50 46c0 30 18 46 50 46h113v159z" />
    <glyph glyph-name="daggerdbl" unicode="&#x2021;" 
d="M192 79h-113c-33 0 -50 15 -50 46c0 30 18 46 50 46h113v269h-113c-33 0 -50 15 -50 46c0 30 18 46 50 46h113v135c0 42 19 62 58 62c38 0 58 -21 58 -62v-135h113c33 0 50 -15 50 -46c0 -30 -18 -46 -50 -46h-113v-269h113c33 0 50 -15 50 -46c0 -30 -18 -46 -50 -46
h-113v-132c0 -42 -19 -63 -58 -63c-38 0 -58 22 -58 63v132z" />
    <glyph glyph-name="periodcentered" unicode="&#xb7;" horiz-adv-x="284" 
d="M142 419c42 0 76 -33 76 -76c0 -42 -33 -76 -76 -76s-76 33 -76 76c0 42 34 76 76 76z" />
    <glyph glyph-name="paragraph" unicode="&#xb6;" 
d="M480 722v-54h-55v-668h-74v668h-78v-668h-74v383c-111 4 -179 73 -179 169c0 100 73 170 191 170h269z" />
    <glyph glyph-name="bullet" unicode="&#x2022;" horiz-adv-x="590" 
d="M150 372c0 80 65 144 145 144c79 0 144 -64 144 -144c0 -79 -65 -145 -145 -145s-144 65 -144 145z" />
    <glyph glyph-name="quotesinglbase" unicode="&#x201a;" horiz-adv-x="260" 
d="M146 11c-10 -9 -21 -14 -35 -14c-41 0 -67 28 -67 75c0 49 31 81 82 81c53 0 92 -48 92 -125c0 -98 -78 -172 -151 -172c-16 0 -25 11 -25 30c0 25 22 25 57 42c31 15 48 40 48 69c0 5 0 9 -1 14z" />
    <glyph glyph-name="quotedblbase" unicode="&#x201e;" horiz-adv-x="440" 
d="M128 9c-10 -9 -22 -14 -36 -14c-41 0 -67 27 -67 74c0 49 32 82 83 82c53 0 91 -49 91 -126c0 -98 -78 -171 -151 -171c-16 0 -25 11 -25 30c0 25 22 25 57 42c31 15 49 40 49 70c0 4 0 9 -1 13zM343 9c-10 -9 -21 -14 -35 -14c-41 0 -68 27 -68 74c0 49 32 82 83 82
c53 0 92 -49 92 -126c0 -98 -78 -171 -151 -171c-16 0 -26 11 -26 30c0 25 22 25 57 42c31 15 49 40 49 70c0 4 0 9 -1 13z" />
    <glyph glyph-name="quotedblright" unicode="&#x201d;" horiz-adv-x="440" 
d="M343 586c-11 -10 -21 -13 -35 -13c-41 0 -68 27 -68 74c0 49 32 82 83 82c53 0 92 -49 92 -126c0 -98 -78 -171 -151 -171c-16 0 -26 10 -26 29c0 25 22 26 57 43c31 15 49 40 49 69c0 4 0 9 -1 13zM128 586c-11 -10 -22 -13 -36 -13c-41 0 -67 27 -67 74
c0 49 32 82 83 82c53 0 91 -49 91 -126c0 -98 -78 -171 -151 -171c-16 0 -25 10 -25 29c0 25 22 26 57 43c31 15 49 40 49 69c0 4 0 9 -1 13z" />
    <glyph glyph-name="guillemotright" unicode="&#xbb;" horiz-adv-x="447" 
d="M108 126c-11 -9 -20 -14 -30 -14c-22 0 -44 23 -44 47c0 12 7 23 20 34l82 71l-80 71c-13 12 -23 19 -23 34c0 25 21 48 46 48c7 0 17 -5 26 -12l94 -79c22 -18 34 -35 34 -60c0 -23 -12 -45 -34 -64zM319 126c-11 -9 -20 -14 -30 -14c-22 0 -44 23 -44 47
c0 12 7 23 20 34l82 71l-80 71c-13 12 -23 19 -23 34c0 25 21 48 46 48c7 0 17 -5 26 -12l94 -79c22 -18 34 -35 34 -60c0 -23 -12 -45 -34 -64z" />
    <glyph glyph-name="ellipsis" unicode="&#x2026;" horiz-adv-x="1000" 
d="M83 74c0 45 37 83 83 83c47 0 84 -36 84 -83s-39 -84 -84 -84s-83 39 -83 84zM416 74c0 45 37 83 83 83c47 0 84 -36 84 -83s-39 -84 -84 -84s-83 39 -83 84zM750 74c0 45 37 83 83 83c47 0 84 -36 84 -83s-39 -84 -84 -84s-83 39 -83 84z" />
    <glyph glyph-name="perthousand" unicode="&#x2030;" horiz-adv-x="1285" 
d="M214 699c99 0 181 -82 181 -182s-81 -181 -181 -181c-102 0 -182 79 -182 181s80 182 182 182zM214 593c-43 0 -76 -33 -76 -76s33 -76 76 -76c42 0 76 34 76 76s-34 76 -76 76zM647 343c99 0 181 -80 181 -181c0 -100 -81 -182 -181 -182c-102 0 -182 80 -182 182
s80 181 182 181zM647 238c-43 0 -76 -33 -76 -76s33 -77 76 -77c42 0 76 35 76 77s-34 76 -76 76zM1072 343c99 0 181 -80 181 -181c0 -100 -81 -182 -181 -182c-102 0 -182 80 -182 182s80 181 182 181zM1072 238c-43 0 -76 -33 -76 -76s33 -77 76 -77c42 0 76 36 76 77
c0 42 -34 76 -76 76zM587 679c8 14 19 21 32 21c19 0 34 -15 34 -34c0 -6 -3 -12 -7 -20l-376 -646c-8 -14 -18 -20 -30 -20c-19 0 -35 15 -35 33c0 6 3 14 7 21z" />
    <glyph glyph-name="questiondown" unicode="&#xbf;" horiz-adv-x="558" 
d="M40 194c0 61 16 98 56 141c30 33 74 53 100 85c16 21 18 43 24 56c11 25 31 37 61 37c40 0 66 -25 66 -66c0 -35 -18 -74 -52 -106c-51 -48 -106 -71 -106 -140c0 -62 36 -98 97 -98c40 0 70 17 90 51c21 36 28 75 85 75c38 0 61 -23 61 -64c0 -39 -21 -83 -60 -120
c-47 -44 -103 -65 -176 -65c-153 0 -246 87 -246 214zM362 648c0 -44 -35 -79 -79 -79c-45 0 -80 34 -80 79c0 44 36 80 80 80c43 0 79 -37 79 -80z" />
    <glyph glyph-name="grave" unicode="`" 
d="M250 769l61 -109c6 -11 9 -20 9 -29c0 -19 -17 -37 -41 -37c-18 0 -25 6 -34 17l-79 91c-11 12 -16 27 -16 40c0 29 25 54 56 54c20 0 34 -9 44 -27z" />
    <glyph glyph-name="acute" unicode="&#xb4;" 
d="M336 700l-81 -90c-10 -11 -17 -16 -34 -16c-23 0 -41 18 -41 38c0 9 4 18 10 29l63 108c10 17 25 25 42 25c34 0 58 -24 58 -54c0 -14 -6 -28 -17 -40z" />
    <glyph glyph-name="circumflex" unicode="&#x2c6;" 
d="M250 702l-46 -78c-12 -20 -22 -30 -42 -30c-23 0 -42 21 -42 42c0 5 1 10 4 15l47 88c15 29 39 37 79 37s64 -8 79 -37l46 -87c3 -5 3 -10 3 -16c0 -23 -19 -42 -40 -42c-20 0 -30 10 -42 30z" />
    <glyph glyph-name="tilde" unicode="&#x2dc;" 
d="M217 655c-2 1 -4 1 -7 1c-5 0 -10 -1 -13 -4c-15 -17 -24 -32 -50 -32c-23 0 -43 20 -43 45c0 36 42 81 94 81c16 0 29 -3 39 -8l49 -23c2 -1 5 -1 7 -1c5 0 10 1 13 4c15 18 24 32 48 32c25 0 44 -18 44 -44c0 -36 -42 -82 -93 -82c-17 0 -31 4 -44 10z" />
    <glyph glyph-name="macron" unicode="&#xaf;" 
d="M150 730h200c32 0 50 -17 50 -47s-18 -48 -50 -48h-200c-32 0 -49 18 -49 48s17 47 49 47z" />
    <glyph glyph-name="breve" unicode="&#x2d8;" 
d="M95 717c0 31 17 50 46 50c31 0 39 -21 57 -52c7 -12 27 -22 52 -22c26 0 45 10 52 22c18 31 27 52 58 52c28 0 45 -18 45 -48c0 -58 -58 -119 -155 -119c-95 0 -155 58 -155 117z" />
    <glyph glyph-name="dotaccent" unicode="&#x2d9;" 
d="M250 752c39 0 70 -30 70 -69s-32 -70 -70 -70s-69 33 -69 70c0 38 31 69 69 69z" />
    <glyph glyph-name="dieresis" unicode="&#xa8;" 
d="M164 751c39 0 69 -30 69 -69c0 -38 -31 -69 -69 -69c-37 0 -69 33 -69 70s31 68 69 68zM334 751c39 0 69 -30 69 -69c0 -38 -31 -69 -69 -69c-37 0 -69 33 -69 70s31 68 69 68z" />
    <glyph glyph-name="ring" unicode="&#x2da;" 
d="M250 834c73 0 130 -58 130 -130c0 -73 -57 -130 -130 -130s-129 57 -129 130c0 72 57 130 129 130zM250 764c-33 0 -59 -26 -59 -60s25 -59 59 -59s60 26 60 59s-27 60 -60 60z" />
    <glyph glyph-name="cedilla" unicode="&#xb8;" 
d="M225 0h50v-44h7c76 0 115 -31 115 -93c0 -65 -42 -98 -129 -98c-83 0 -131 18 -131 46c0 17 12 29 26 29c22 0 55 -12 100 -12c33 0 49 11 49 36c0 32 -24 30 -68 34c-17 1 -19 17 -19 52v50z" />
    <glyph glyph-name="hungarumlaut" unicode="&#x2dd;" 
d="M187 760c7 21 23 31 45 31c25 0 47 -22 47 -47c0 -10 -2 -20 -8 -30l-59 -99c-8 -13 -14 -21 -34 -21c-19 0 -34 14 -34 33c0 6 2 13 4 20zM326 762c8 21 22 30 44 30c24 0 47 -23 47 -46c0 -12 -3 -22 -9 -32l-60 -99c-7 -12 -13 -21 -34 -21c-20 0 -33 14 -33 34
c0 6 1 12 4 20z" />
    <glyph glyph-name="ogonek" unicode="&#x2db;" 
d="M306 0c-42 -34 -62 -69 -62 -100c0 -20 6 -31 22 -37c8 -3 26 -1 45 -7c15 -5 24 -19 24 -38c0 -28 -19 -42 -58 -42c-72 0 -111 33 -111 90c0 49 31 90 93 134h47z" />
    <glyph glyph-name="caron" unicode="&#x2c7;" 
d="M250 668l46 79c11 20 21 29 41 29c21 0 42 -18 42 -42c0 -5 -2 -11 -4 -15l-47 -88c-15 -29 -38 -37 -78 -37s-63 7 -79 37l-46 88c-3 5 -4 11 -4 17c0 21 18 40 41 40c19 0 30 -9 41 -29z" />
    <glyph glyph-name="emdash" unicode="&#x2014;" horiz-adv-x="1000" 
d="M942 320c39 0 58 -18 58 -54s-20 -54 -58 -54h-884c-39 0 -58 18 -58 54s20 54 58 54h884z" />
    <glyph glyph-name="AE" unicode="&#xc6;" horiz-adv-x="1002" 
d="M250 651c22 55 37 68 105 68h509c53 0 80 -22 80 -63c0 -40 -27 -62 -80 -62h-273v-153h241c53 0 80 -21 80 -62c0 -39 -27 -61 -80 -61h-241v-186h291c53 0 80 -22 80 -66c0 -43 -27 -66 -80 -66h-344c-73 0 -90 32 -90 113v35h-244l-38 -103c-14 -38 -35 -54 -72 -54
c-43 0 -72 26 -72 64c0 13 2 26 7 38zM367 597l-121 -333h202v333h-81z" />
    <glyph glyph-name="ordfeminine" unicode="&#xaa;" horiz-adv-x="422" 
d="M375 633v-211c0 -20 4 -35 4 -45c0 -23 -17 -37 -46 -37c-40 0 -58 18 -58 59c-27 -38 -71 -59 -129 -59c-75 0 -120 42 -120 115c0 72 36 102 117 118c50 10 89 10 112 17c11 4 17 13 17 28c0 31 -20 42 -66 42c-25 0 -45 -7 -60 -19c-18 -14 -30 -37 -60 -37
c-24 0 -42 18 -42 41c0 45 62 93 159 93c112 0 172 -38 172 -105zM273 536c-40 -18 -74 -20 -95 -26c-34 -9 -50 -21 -50 -49s20 -45 55 -45c54 0 90 33 90 85v35z" />
    <glyph glyph-name="Lslash" unicode="&#x141;" horiz-adv-x="584" 
d="M169 0c-73 0 -90 32 -90 113v154l-15 -10c-11 -8 -23 -11 -34 -11c-25 0 -43 19 -43 45c0 17 8 33 23 43l69 48v268c0 50 27 79 74 79c49 0 74 -26 74 -79v-180l122 86c11 7 22 11 32 11c24 0 46 -25 46 -50c0 -15 -8 -27 -24 -38l-176 -124v-223h271c58 0 89 -24 89 -64
c0 -49 -28 -68 -89 -68h-329z" />
    <glyph glyph-name="Oslash" unicode="&#xd8;" horiz-adv-x="789" 
d="M90 -14c-8 -9 -15 -13 -24 -13c-17 0 -34 17 -34 33c0 8 4 14 11 22l73 83c-49 67 -73 148 -73 248c0 233 136 379 351 379c90 0 162 -22 225 -72l55 61c8 9 16 13 24 13c17 0 32 -16 32 -32c0 -7 -2 -15 -9 -22l-58 -64c52 -64 83 -150 83 -263
c0 -233 -137 -379 -352 -379c-97 0 -175 27 -236 83zM219 219l309 340c-33 31 -76 50 -134 50c-125 0 -200 -90 -200 -250c0 -55 7 -102 25 -140zM250 170c36 -39 82 -61 144 -61c126 0 202 90 202 250c0 65 -12 118 -34 156z" />
    <glyph glyph-name="OE" unicode="&#x152;" horiz-adv-x="1128" 
d="M552 669c4 38 27 50 77 50h362c53 0 80 -22 80 -63c0 -39 -28 -62 -80 -62h-296v-153h264c53 0 80 -21 80 -62c0 -39 -28 -61 -80 -61h-264v-185h315c53 0 79 -23 79 -67c0 -43 -26 -66 -79 -66h-399c-36 0 -56 16 -59 50c-57 -47 -119 -70 -192 -70
c-186 0 -317 148 -317 379c0 232 131 380 318 380c71 0 132 -22 191 -70zM552 549c-47 45 -96 66 -158 66c-133 0 -200 -87 -200 -256c0 -168 68 -255 200 -255c61 0 112 20 158 65v380z" />
    <glyph glyph-name="ordmasculine" unicode="&#xba;" horiz-adv-x="456" 
d="M228 738c125 0 202 -75 202 -199s-77 -199 -202 -199s-202 75 -202 199s77 199 202 199zM228 654c-59 0 -94 -41 -94 -115s35 -115 94 -115s93 41 93 115s-34 115 -93 115z" />
    <glyph glyph-name="ae" unicode="&#xe6;" horiz-adv-x="884" 
d="M446 493c43 41 92 57 157 57c148 0 247 -103 247 -261c0 -59 -24 -61 -80 -61h-282c2 -84 44 -131 115 -131c37 0 66 8 84 25c27 24 44 47 77 47c32 0 56 -23 56 -54c0 -22 -13 -44 -36 -66c-46 -44 -110 -67 -191 -67s-142 32 -178 93c-45 -64 -115 -93 -215 -93
c-108 0 -166 60 -166 168c0 96 54 150 163 166c126 18 161 12 161 62c0 46 -21 61 -88 61c-30 0 -56 -10 -76 -27c-23 -21 -41 -53 -83 -53c-30 0 -51 23 -51 54c0 70 83 137 216 137c73 0 133 -21 170 -57zM704 322v3c0 70 -41 111 -109 111c-62 0 -104 -43 -106 -114h215z
M361 259c-64 -29 -119 -28 -152 -44c-24 -11 -37 -33 -37 -63c0 -40 27 -63 76 -63c65 0 113 49 113 102v68z" />
    <glyph glyph-name="dotlessi" unicode="&#x131;" horiz-adv-x="272" 
d="M207 70c0 -53 -24 -79 -71 -79s-71 26 -71 79v391c0 53 24 80 71 80s71 -27 71 -80v-391z" />
    <glyph glyph-name="lslash" unicode="&#x142;" horiz-adv-x="281" 
d="M70 273l-16 -10c-11 -7 -20 -13 -29 -13c-21 0 -41 22 -41 45c0 13 7 22 21 33l65 49v273c0 53 24 79 71 79s71 -26 71 -79v-188l14 10c11 8 21 13 29 13c21 0 41 -22 41 -45c0 -13 -7 -22 -21 -33l-63 -48v-289c0 -53 -24 -79 -71 -79s-71 26 -71 79v203z" />
    <glyph glyph-name="oslash" unicode="&#xf8;" horiz-adv-x="608" 
d="M535 547c6 7 13 11 20 11c14 0 27 -13 27 -27c0 -6 -3 -13 -9 -19l-55 -59c39 -51 55 -112 55 -189c0 -174 -105 -283 -270 -283c-73 0 -131 18 -178 59l-54 -57c-7 -7 -14 -10 -20 -10c-14 0 -27 13 -27 27c0 6 3 13 9 19l57 60c-39 53 -56 112 -56 186
c0 177 105 286 273 286c68 0 126 -20 176 -60zM395 396c-25 26 -53 38 -86 38c-88 0 -134 -58 -134 -173c0 -29 5 -56 14 -82zM419 353l-207 -216c24 -28 52 -40 90 -40c84 0 130 59 130 171c0 30 -4 58 -13 85z" />
    <glyph glyph-name="oe" unicode="&#x153;" horiz-adv-x="951" 
d="M486 60c-44 -53 -105 -78 -187 -78c-165 0 -263 103 -263 288c0 176 101 280 265 280c86 0 149 -26 191 -79c41 55 98 79 181 79c143 0 241 -101 241 -255c0 -67 -23 -67 -92 -67h-269c3 -87 43 -130 121 -130c34 0 61 9 79 24c28 23 44 47 78 47c32 0 56 -23 56 -54
c0 -21 -12 -44 -35 -66c-45 -44 -112 -67 -192 -67c-75 0 -129 24 -174 78zM177 270c0 -110 48 -173 123 -173c83 0 131 61 131 174c0 107 -47 165 -132 165c-74 0 -122 -61 -122 -166zM555 322h217c-3 75 -42 116 -110 116c-61 0 -106 -45 -107 -116z" />
    <glyph glyph-name="germandbls" unicode="&#xdf;" horiz-adv-x="600" 
d="M448 403c77 -31 116 -90 116 -177c0 -147 -98 -244 -217 -244c-54 0 -84 23 -84 63c0 18 8 34 22 45c20 16 44 11 61 16c44 12 74 55 74 117c0 57 -28 96 -79 112c-36 11 -75 8 -75 55c0 43 30 44 74 59c24 8 42 39 42 81c0 62 -32 93 -95 93c-56 0 -86 -32 -86 -94v-464
c0 -49 -24 -74 -70 -74c-45 0 -68 25 -68 74v492c0 104 85 181 230 181c147 0 229 -71 229 -192c0 -71 -26 -121 -74 -143z" />
    <glyph glyph-name="Aacute" unicode="&#xc1;" horiz-adv-x="686" 
d="M170 45c-12 -37 -35 -54 -72 -54c-43 0 -71 27 -71 65c0 13 2 25 7 38l199 559c21 60 38 76 109 76c72 0 87 -19 107 -74l203 -561c5 -13 7 -25 7 -38c0 -38 -29 -65 -72 -65c-37 0 -59 17 -71 54l-34 103h-279zM342 575l-100 -306h200zM432 889l-81 -90
c-10 -11 -17 -16 -34 -16c-23 0 -41 18 -41 38c0 9 4 18 10 29l63 108c10 17 25 25 42 25c34 0 58 -24 58 -54c0 -14 -6 -28 -17 -40z" />
    <glyph glyph-name="Acircumflex" unicode="&#xc2;" horiz-adv-x="686" 
d="M170 45c-12 -37 -35 -54 -72 -54c-43 0 -71 27 -71 65c0 13 2 25 7 38l199 559c21 60 38 76 109 76c72 0 87 -19 107 -74l203 -561c5 -13 7 -25 7 -38c0 -38 -29 -65 -72 -65c-37 0 -59 17 -71 54l-34 103h-279zM342 575l-100 -306h200zM346 891l-46 -78
c-12 -20 -22 -30 -42 -30c-23 0 -42 21 -42 42c0 5 1 10 4 15l47 88c15 29 39 37 79 37s64 -8 79 -37l46 -87c3 -5 3 -10 3 -16c0 -23 -19 -42 -40 -42c-20 0 -30 10 -42 30z" />
    <glyph glyph-name="Adieresis" unicode="&#xc4;" horiz-adv-x="686" 
d="M170 45c-12 -37 -35 -54 -72 -54c-43 0 -71 27 -71 65c0 13 2 25 7 38l199 559c21 60 38 76 109 76c72 0 87 -19 107 -74l203 -561c5 -13 7 -25 7 -38c0 -38 -29 -65 -72 -65c-37 0 -59 17 -71 54l-34 103h-279zM342 575l-100 -306h200zM260 940c39 0 69 -30 69 -69
c0 -38 -31 -69 -69 -69c-37 0 -69 33 -69 70s31 68 69 68zM430 940c39 0 69 -30 69 -69c0 -38 -31 -69 -69 -69c-37 0 -69 33 -69 70s31 68 69 68z" />
    <glyph glyph-name="Agrave" unicode="&#xc0;" horiz-adv-x="686" 
d="M170 45c-12 -37 -35 -54 -72 -54c-43 0 -71 27 -71 65c0 13 2 25 7 38l199 559c21 60 38 76 109 76c72 0 87 -19 107 -74l203 -561c5 -13 7 -25 7 -38c0 -38 -29 -65 -72 -65c-37 0 -59 17 -71 54l-34 103h-279zM342 575l-100 -306h200zM346 958l61 -109
c6 -11 9 -20 9 -29c0 -19 -17 -37 -41 -37c-18 0 -25 6 -34 17l-79 91c-11 12 -16 27 -16 40c0 29 25 54 56 54c20 0 34 -9 44 -27z" />
    <glyph glyph-name="Aring" unicode="&#xc5;" horiz-adv-x="686" 
d="M342 963c70 0 125 -55 125 -125s-55 -125 -125 -125s-124 55 -124 125s54 125 124 125zM342 895c-32 0 -57 -26 -57 -58s25 -57 57 -57s58 25 58 57s-26 58 -58 58zM170 42c-12 -35 -36 -51 -72 -51c-43 0 -71 26 -71 61c0 12 2 23 7 35l199 522c22 57 40 72 109 72
c71 0 87 -17 107 -69l203 -525c5 -12 7 -23 7 -35c0 -35 -29 -61 -72 -61c-36 0 -59 16 -71 51l-34 96h-279zM342 537l-100 -287h200z" />
    <glyph glyph-name="Atilde" unicode="&#xc3;" horiz-adv-x="686" 
d="M170 45c-12 -37 -35 -54 -72 -54c-43 0 -71 27 -71 65c0 13 2 25 7 38l199 559c21 60 38 76 109 76c72 0 87 -19 107 -74l203 -561c5 -13 7 -25 7 -38c0 -38 -29 -65 -72 -65c-37 0 -59 17 -71 54l-34 103h-279zM342 575l-100 -306h200zM313 844c-2 1 -4 1 -7 1
c-5 0 -10 -1 -13 -4c-15 -17 -24 -32 -50 -32c-23 0 -43 20 -43 45c0 36 42 81 94 81c16 0 29 -3 39 -8l49 -23c2 -1 5 -1 7 -1c5 0 10 1 13 4c15 18 24 32 48 32c25 0 44 -18 44 -44c0 -36 -42 -82 -93 -82c-17 0 -31 4 -44 10z" />
    <glyph glyph-name="Ccedilla" unicode="&#xc7;" horiz-adv-x="744" 
d="M44 348c0 247 129 391 346 391c86 0 156 -23 221 -73c46 -35 71 -81 71 -118c0 -43 -27 -71 -70 -71c-25 0 -46 10 -67 30c-15 14 -22 33 -33 45c-32 37 -75 54 -129 54c-114 0 -188 -89 -188 -246c0 -158 71 -246 194 -246c56 0 100 18 127 50c15 18 20 35 28 45
c22 28 40 42 70 42c40 0 71 -30 71 -67c0 -33 -23 -81 -67 -120c-68 -60 -140 -84 -237 -84c-209 0 -337 140 -337 368zM346 0h50v-44h7c76 0 115 -31 115 -93c0 -65 -42 -98 -129 -98c-83 0 -131 18 -131 46c0 17 12 29 26 29c22 0 55 -12 100 -12c33 0 49 11 49 36
c0 32 -24 30 -68 34c-17 1 -19 17 -19 52v50z" />
    <glyph glyph-name="Eacute" unicode="&#xc9;" horiz-adv-x="653" 
d="M544 132c53 0 80 -22 80 -66c0 -43 -27 -66 -80 -66h-380c-73 0 -90 32 -90 113v493c0 81 17 113 90 113h361c53 0 80 -22 80 -63c0 -40 -27 -62 -80 -62h-305v-153h274c53 0 79 -21 79 -62c0 -39 -26 -61 -79 -61h-274v-186h324zM422 889l-81 -90
c-10 -11 -17 -16 -34 -16c-23 0 -41 18 -41 38c0 9 4 18 10 29l63 108c10 17 25 25 42 25c34 0 58 -24 58 -54c0 -14 -6 -28 -17 -40z" />
    <glyph glyph-name="Ecircumflex" unicode="&#xca;" horiz-adv-x="653" 
d="M544 132c53 0 80 -22 80 -66c0 -43 -27 -66 -80 -66h-380c-73 0 -90 32 -90 113v493c0 81 17 113 90 113h361c53 0 80 -22 80 -63c0 -40 -27 -62 -80 -62h-305v-153h274c53 0 79 -21 79 -62c0 -39 -26 -61 -79 -61h-274v-186h324zM336 891l-46 -78
c-12 -20 -22 -30 -42 -30c-23 0 -42 21 -42 42c0 5 1 10 4 15l47 88c15 29 39 37 79 37s64 -8 79 -37l46 -87c3 -5 3 -10 3 -16c0 -23 -19 -42 -40 -42c-20 0 -30 10 -42 30z" />
    <glyph glyph-name="Edieresis" unicode="&#xcb;" horiz-adv-x="653" 
d="M544 132c53 0 80 -22 80 -66c0 -43 -27 -66 -80 -66h-380c-73 0 -90 32 -90 113v493c0 81 17 113 90 113h361c53 0 80 -22 80 -63c0 -40 -27 -62 -80 -62h-305v-153h274c53 0 79 -21 79 -62c0 -39 -26 -61 -79 -61h-274v-186h324zM250 940c39 0 69 -30 69 -69
c0 -38 -31 -69 -69 -69c-37 0 -69 33 -69 70s31 68 69 68zM420 940c39 0 69 -30 69 -69c0 -38 -31 -69 -69 -69c-37 0 -69 33 -69 70s31 68 69 68z" />
    <glyph glyph-name="Egrave" unicode="&#xc8;" horiz-adv-x="653" 
d="M544 132c53 0 80 -22 80 -66c0 -43 -27 -66 -80 -66h-380c-73 0 -90 32 -90 113v493c0 81 17 113 90 113h361c53 0 80 -22 80 -63c0 -40 -27 -62 -80 -62h-305v-153h274c53 0 79 -21 79 -62c0 -39 -26 -61 -79 -61h-274v-186h324zM336 958l61 -109c6 -11 9 -20 9 -29
c0 -19 -17 -37 -41 -37c-18 0 -25 6 -34 17l-79 91c-11 12 -16 27 -16 40c0 29 25 54 56 54c20 0 34 -9 44 -27z" />
    <glyph glyph-name="Eth" unicode="&#xd0;" horiz-adv-x="731" 
d="M77 606c0 81 18 113 91 113h192c220 0 327 -117 327 -360c0 -134 -41 -235 -116 -295c-70 -56 -149 -64 -252 -64h-151c-73 0 -91 32 -91 113v227h-28c-33 0 -49 16 -49 47c0 30 17 46 49 46h28v173zM222 593v-160h108c32 0 50 -17 50 -46c0 -31 -17 -47 -50 -47h-108
v-210h119c137 0 196 67 196 229c0 160 -56 234 -178 234h-137z" />
    <glyph glyph-name="Euro" unicode="&#x20ac;" horiz-adv-x="567" 
d="M27 314h53v26c0 13 0 25 1 37h-51c-19 0 -28 9 -28 27s9 27 28 27h55c23 188 123 268 255 268c83 0 174 -48 202 -130c5 -13 7 -28 7 -41c0 -26 -9 -50 -34 -61c-12 -6 -23 -8 -33 -8c-24 0 -39 14 -50 25c-14 16 -19 37 -27 56c-13 28 -39 42 -70 42
c-67 0 -97 -52 -106 -151h193c19 0 29 -9 29 -26c0 -18 -10 -28 -29 -28h-197v-63h156c19 0 29 -9 29 -26c0 -18 -10 -28 -29 -28h-154c7 -109 37 -163 112 -163c33 0 66 10 81 41c8 19 13 40 27 56c8 9 26 25 51 25c10 0 20 -2 32 -8c24 -12 33 -32 33 -54
c0 -15 -5 -32 -10 -48c-10 -30 -39 -64 -67 -83c-44 -30 -97 -45 -152 -45c-141 0 -231 88 -251 279h-56c-19 0 -28 9 -28 27s9 27 28 27z" />
    <glyph glyph-name="Iacute" unicode="&#xcd;" horiz-adv-x="307" 
d="M79 650c0 53 24 79 74 79c49 0 74 -26 74 -79v-580c0 -53 -24 -79 -74 -79c-49 0 -74 26 -74 79v580zM240 889l-81 -90c-10 -11 -17 -16 -34 -16c-23 0 -41 18 -41 38c0 9 4 18 10 29l63 108c10 17 25 25 42 25c34 0 58 -24 58 -54c0 -14 -6 -28 -17 -40z" />
    <glyph glyph-name="Icircumflex" unicode="&#xce;" horiz-adv-x="307" 
d="M79 650c0 53 24 79 74 79c49 0 74 -26 74 -79v-580c0 -53 -24 -79 -74 -79c-49 0 -74 26 -74 79v580zM154 891l-46 -78c-12 -20 -22 -30 -42 -30c-23 0 -42 21 -42 42c0 5 1 10 4 15l47 88c15 29 39 37 79 37s64 -8 79 -37l46 -87c3 -5 3 -10 3 -16
c0 -23 -19 -42 -40 -42c-20 0 -30 10 -42 30z" />
    <glyph glyph-name="Idieresis" unicode="&#xcf;" horiz-adv-x="307" 
d="M79 650c0 53 24 79 74 79c49 0 74 -26 74 -79v-580c0 -53 -24 -79 -74 -79c-49 0 -74 26 -74 79v580zM68 940c39 0 69 -30 69 -69c0 -38 -31 -69 -69 -69c-37 0 -69 33 -69 70s31 68 69 68zM238 940c39 0 69 -30 69 -69c0 -38 -31 -69 -69 -69c-37 0 -69 33 -69 70
s31 68 69 68z" />
    <glyph glyph-name="Igrave" unicode="&#xcc;" horiz-adv-x="307" 
d="M79 650c0 53 24 79 74 79c49 0 74 -26 74 -79v-580c0 -53 -24 -79 -74 -79c-49 0 -74 26 -74 79v580zM154 958l61 -109c6 -11 9 -20 9 -29c0 -19 -17 -37 -41 -37c-18 0 -25 6 -34 17l-79 91c-11 12 -16 27 -16 40c0 29 25 54 56 54c20 0 34 -9 44 -27z" />
    <glyph glyph-name="Ntilde" unicode="&#xd1;" horiz-adv-x="741" 
d="M220 79c0 -59 -23 -88 -73 -88c-51 0 -73 27 -73 88v537c0 81 17 113 90 113c62 0 80 -37 124 -111l233 -393v416c0 60 23 88 73 88c51 0 73 -28 73 -88v-539c0 -79 -18 -111 -80 -111c-64 0 -82 24 -116 81l-251 422v-415zM342 844c-2 1 -4 1 -7 1c-5 0 -10 -1 -13 -4
c-15 -17 -24 -32 -50 -32c-23 0 -43 20 -43 45c0 36 42 81 94 81c16 0 29 -3 39 -8l49 -23c2 -1 5 -1 7 -1c5 0 10 1 13 4c15 18 24 32 48 32c25 0 44 -18 44 -44c0 -36 -42 -82 -93 -82c-17 0 -31 4 -44 10z" />
    <glyph glyph-name="Oacute" unicode="&#xd3;" horiz-adv-x="789" 
d="M394 738c215 0 352 -147 352 -379s-137 -379 -352 -379s-351 146 -351 379s136 379 351 379zM394 609c-125 0 -200 -90 -200 -250s75 -250 200 -250c126 0 202 90 202 250s-76 250 -202 250zM481 889l-81 -90c-10 -11 -17 -16 -34 -16c-23 0 -41 18 -41 38
c0 9 4 18 10 29l63 108c10 17 25 25 42 25c34 0 58 -24 58 -54c0 -14 -6 -28 -17 -40z" />
    <glyph glyph-name="Ocircumflex" unicode="&#xd4;" horiz-adv-x="789" 
d="M394 738c215 0 352 -147 352 -379s-137 -379 -352 -379s-351 146 -351 379s136 379 351 379zM394 609c-125 0 -200 -90 -200 -250s75 -250 200 -250c126 0 202 90 202 250s-76 250 -202 250zM395 891l-46 -78c-12 -20 -22 -30 -42 -30c-23 0 -42 21 -42 42c0 5 1 10 4 15
l47 88c15 29 39 37 79 37s64 -8 79 -37l46 -87c3 -5 3 -10 3 -16c0 -23 -19 -42 -40 -42c-20 0 -30 10 -42 30z" />
    <glyph glyph-name="Odieresis" unicode="&#xd6;" horiz-adv-x="789" 
d="M394 738c215 0 352 -147 352 -379s-137 -379 -352 -379s-351 146 -351 379s136 379 351 379zM394 609c-125 0 -200 -90 -200 -250s75 -250 200 -250c126 0 202 90 202 250s-76 250 -202 250zM309 940c39 0 69 -30 69 -69c0 -38 -31 -69 -69 -69c-37 0 -69 33 -69 70
s31 68 69 68zM479 940c39 0 69 -30 69 -69c0 -38 -31 -69 -69 -69c-37 0 -69 33 -69 70s31 68 69 68z" />
    <glyph glyph-name="Ograve" unicode="&#xd2;" horiz-adv-x="789" 
d="M394 738c215 0 352 -147 352 -379s-137 -379 -352 -379s-351 146 -351 379s136 379 351 379zM394 609c-125 0 -200 -90 -200 -250s75 -250 200 -250c126 0 202 90 202 250s-76 250 -202 250zM395 958l61 -109c6 -11 9 -20 9 -29c0 -19 -17 -37 -41 -37
c-18 0 -25 6 -34 17l-79 91c-11 12 -16 27 -16 40c0 29 25 54 56 54c20 0 34 -9 44 -27z" />
    <glyph glyph-name="Otilde" unicode="&#xd5;" horiz-adv-x="789" 
d="M394 738c215 0 352 -147 352 -379s-137 -379 -352 -379s-351 146 -351 379s136 379 351 379zM394 609c-125 0 -200 -90 -200 -250s75 -250 200 -250c126 0 202 90 202 250s-76 250 -202 250zM362 844c-2 1 -4 1 -7 1c-5 0 -10 -1 -13 -4c-15 -17 -24 -32 -50 -32
c-23 0 -43 20 -43 45c0 36 42 81 94 81c16 0 29 -3 39 -8l49 -23c2 -1 5 -1 7 -1c5 0 10 1 13 4c15 18 24 32 48 32c25 0 44 -18 44 -44c0 -36 -42 -82 -93 -82c-17 0 -31 4 -44 10z" />
    <glyph glyph-name="Scaron" unicode="&#x160;" horiz-adv-x="667" 
d="M588 573c0 -39 -26 -65 -66 -65c-47 0 -60 30 -89 65c-25 30 -64 45 -117 45c-78 0 -121 -33 -121 -87c0 -67 59 -69 169 -97c70 -17 129 -32 174 -57c60 -34 88 -87 88 -165c0 -140 -104 -232 -282 -232c-85 0 -150 15 -219 64c-44 32 -71 79 -71 119c0 44 28 73 67 73
c53 0 63 -44 93 -80c29 -36 71 -52 128 -52c92 0 139 32 139 93c0 66 -60 78 -191 108c-162 37 -238 80 -238 217c0 134 98 216 272 216c79 0 143 -18 195 -55c43 -30 69 -76 69 -110zM334 857l46 79c11 20 21 29 41 29c21 0 42 -18 42 -42c0 -5 -2 -11 -4 -15l-47 -88
c-15 -29 -38 -37 -78 -37s-63 7 -79 37l-46 88c-3 5 -4 11 -4 17c0 21 18 40 41 40c19 0 30 -9 41 -29z" />
    <glyph glyph-name="Thorn" unicode="&#xde;" horiz-adv-x="657" 
d="M74 651c0 52 24 78 73 78c47 0 73 -27 73 -78v-44h168c149 0 226 -76 226 -217c0 -138 -76 -217 -216 -217h-179v-103c0 -52 -23 -78 -72 -78c-47 0 -73 27 -73 78v581zM221 486v-193h143c76 0 111 28 111 97c0 63 -35 96 -104 96h-150z" />
    <glyph glyph-name="Uacute" unicode="&#xda;" horiz-adv-x="717" 
d="M70 650c0 53 24 79 74 79c49 0 75 -26 75 -79v-380c0 -108 40 -160 139 -160c100 0 140 51 140 160v380c0 53 24 79 74 79c49 0 74 -26 74 -79v-396c0 -178 -103 -274 -287 -274c-186 0 -289 96 -289 274v396zM445 889l-81 -90c-10 -11 -17 -16 -34 -16
c-23 0 -41 18 -41 38c0 9 4 18 10 29l63 108c10 17 25 25 42 25c34 0 58 -24 58 -54c0 -14 -6 -28 -17 -40z" />
    <glyph glyph-name="Ucircumflex" unicode="&#xdb;" horiz-adv-x="717" 
d="M70 650c0 53 24 79 74 79c49 0 75 -26 75 -79v-380c0 -108 40 -160 139 -160c100 0 140 51 140 160v380c0 53 24 79 74 79c49 0 74 -26 74 -79v-396c0 -178 -103 -274 -287 -274c-186 0 -289 96 -289 274v396zM359 891l-46 -78c-12 -20 -22 -30 -42 -30
c-23 0 -42 21 -42 42c0 5 1 10 4 15l47 88c15 29 39 37 79 37s64 -8 79 -37l46 -87c3 -5 3 -10 3 -16c0 -23 -19 -42 -40 -42c-20 0 -30 10 -42 30z" />
    <glyph glyph-name="Udieresis" unicode="&#xdc;" horiz-adv-x="717" 
d="M70 650c0 53 24 79 74 79c49 0 75 -26 75 -79v-380c0 -108 40 -160 139 -160c100 0 140 51 140 160v380c0 53 24 79 74 79c49 0 74 -26 74 -79v-396c0 -178 -103 -274 -287 -274c-186 0 -289 96 -289 274v396zM273 940c39 0 69 -30 69 -69c0 -38 -31 -69 -69 -69
c-37 0 -69 33 -69 70s31 68 69 68zM443 940c39 0 69 -30 69 -69c0 -38 -31 -69 -69 -69c-37 0 -69 33 -69 70s31 68 69 68z" />
    <glyph glyph-name="Ugrave" unicode="&#xd9;" horiz-adv-x="717" 
d="M70 650c0 53 24 79 74 79c49 0 75 -26 75 -79v-380c0 -108 40 -160 139 -160c100 0 140 51 140 160v380c0 53 24 79 74 79c49 0 74 -26 74 -79v-396c0 -178 -103 -274 -287 -274c-186 0 -289 96 -289 274v396zM359 958l61 -109c6 -11 9 -20 9 -29c0 -19 -17 -37 -41 -37
c-18 0 -25 6 -34 17l-79 91c-11 12 -16 27 -16 40c0 29 25 54 56 54c20 0 34 -9 44 -27z" />
    <glyph glyph-name="Yacute" unicode="&#xdd;" horiz-adv-x="589" 
d="M40 590c-15 26 -23 48 -23 71c0 40 28 68 70 68c50 0 68 -28 92 -76l122 -244l118 259c19 42 44 61 80 61c44 0 73 -27 73 -59c0 -17 -6 -37 -16 -57l-181 -345v-198c0 -53 -24 -79 -74 -79c-49 0 -74 26 -74 79v198zM381 889l-81 -90c-10 -11 -17 -16 -34 -16
c-23 0 -41 18 -41 38c0 9 4 18 10 29l63 108c10 17 25 25 42 25c34 0 58 -24 58 -54c0 -14 -6 -28 -17 -40z" />
    <glyph glyph-name="Ydieresis" unicode="&#x178;" horiz-adv-x="589" 
d="M40 590c-15 26 -23 48 -23 71c0 40 28 68 70 68c50 0 68 -28 92 -76l122 -244l118 259c19 42 44 61 80 61c44 0 73 -27 73 -59c0 -17 -6 -37 -16 -57l-181 -345v-198c0 -53 -24 -79 -74 -79c-49 0 -74 26 -74 79v198zM209 940c39 0 69 -30 69 -69c0 -38 -31 -69 -69 -69
c-37 0 -69 33 -69 70s31 68 69 68zM379 940c39 0 69 -30 69 -69c0 -38 -31 -69 -69 -69c-37 0 -69 33 -69 70s31 68 69 68z" />
    <glyph glyph-name="Zcaron" unicode="&#x17d;" horiz-adv-x="601" 
d="M92 589c-53 0 -78 21 -78 65c0 45 24 65 78 65h390c82 0 127 -9 127 -75c0 -17 -7 -34 -20 -50l-392 -465h314c54 0 80 -20 80 -64c0 -45 -25 -65 -80 -65h-389c-82 0 -120 16 -120 77c0 19 6 35 19 51l388 461h-317zM301 857l46 79c11 20 21 29 41 29
c21 0 42 -18 42 -42c0 -5 -2 -11 -4 -15l-47 -88c-15 -29 -38 -37 -78 -37s-63 7 -79 37l-46 88c-3 5 -4 11 -4 17c0 21 18 40 41 40c19 0 30 -9 41 -29z" />
    <glyph glyph-name="aacute" unicode="&#xe1;" horiz-adv-x="562" 
d="M500 400v-302c0 -28 5 -49 5 -63c0 -33 -22 -54 -61 -54c-53 0 -77 26 -78 85c-35 -55 -94 -85 -171 -85c-101 0 -161 60 -161 165c0 102 48 146 157 169c66 14 118 14 149 24c14 5 22 18 22 40c0 44 -26 60 -87 60c-34 0 -61 -10 -81 -27c-23 -21 -40 -53 -79 -53
c-32 0 -57 25 -57 58c0 64 83 133 212 133c150 0 230 -54 230 -150zM364 261c-54 -25 -99 -28 -127 -36c-45 -13 -67 -30 -67 -71c0 -40 27 -64 74 -64c72 0 120 47 120 121v50zM360 700l-81 -90c-10 -11 -17 -16 -34 -16c-23 0 -41 18 -41 38c0 9 4 18 10 29l63 108
c10 17 25 25 42 25c34 0 58 -24 58 -54c0 -14 -6 -28 -17 -40z" />
    <glyph glyph-name="acircumflex" unicode="&#xe2;" horiz-adv-x="562" 
d="M500 400v-302c0 -28 5 -49 5 -63c0 -33 -22 -54 -61 -54c-53 0 -77 26 -78 85c-35 -55 -94 -85 -171 -85c-101 0 -161 60 -161 165c0 102 48 146 157 169c66 14 118 14 149 24c14 5 22 18 22 40c0 44 -26 60 -87 60c-34 0 -61 -10 -81 -27c-23 -21 -40 -53 -79 -53
c-32 0 -57 25 -57 58c0 64 83 133 212 133c150 0 230 -54 230 -150zM364 261c-54 -25 -99 -28 -127 -36c-45 -13 -67 -30 -67 -71c0 -40 27 -64 74 -64c72 0 120 47 120 121v50zM274 702l-46 -78c-12 -20 -22 -30 -42 -30c-23 0 -42 21 -42 42c0 5 1 10 4 15l47 88
c15 29 39 37 79 37s64 -8 79 -37l46 -87c3 -5 3 -10 3 -16c0 -23 -19 -42 -40 -42c-20 0 -30 10 -42 30z" />
    <glyph glyph-name="adieresis" unicode="&#xe4;" horiz-adv-x="562" 
d="M500 400v-302c0 -28 5 -49 5 -63c0 -33 -22 -54 -61 -54c-53 0 -77 26 -78 85c-35 -55 -94 -85 -171 -85c-101 0 -161 60 -161 165c0 102 48 146 157 169c66 14 118 14 149 24c14 5 22 18 22 40c0 44 -26 60 -87 60c-34 0 -61 -10 -81 -27c-23 -21 -40 -53 -79 -53
c-32 0 -57 25 -57 58c0 64 83 133 212 133c150 0 230 -54 230 -150zM364 261c-54 -25 -99 -28 -127 -36c-45 -13 -67 -30 -67 -71c0 -40 27 -64 74 -64c72 0 120 47 120 121v50zM188 751c39 0 69 -30 69 -69c0 -38 -31 -69 -69 -69c-37 0 -69 33 -69 70s31 68 69 68z
M358 751c39 0 69 -30 69 -69c0 -38 -31 -69 -69 -69c-37 0 -69 33 -69 70s31 68 69 68z" />
    <glyph glyph-name="agrave" unicode="&#xe0;" horiz-adv-x="562" 
d="M500 400v-302c0 -28 5 -49 5 -63c0 -33 -22 -54 -61 -54c-53 0 -77 26 -78 85c-35 -55 -94 -85 -171 -85c-101 0 -161 60 -161 165c0 102 48 146 157 169c66 14 118 14 149 24c14 5 22 18 22 40c0 44 -26 60 -87 60c-34 0 -61 -10 -81 -27c-23 -21 -40 -53 -79 -53
c-32 0 -57 25 -57 58c0 64 83 133 212 133c150 0 230 -54 230 -150zM364 261c-54 -25 -99 -28 -127 -36c-45 -13 -67 -30 -67 -71c0 -40 27 -64 74 -64c72 0 120 47 120 121v50zM274 769l61 -109c6 -11 9 -20 9 -29c0 -19 -17 -37 -41 -37c-18 0 -25 6 -34 17l-79 91
c-11 12 -16 27 -16 40c0 29 25 54 56 54c20 0 34 -9 44 -27z" />
    <glyph glyph-name="aring" unicode="&#xe5;" horiz-adv-x="562" 
d="M277 823c70 0 125 -55 125 -125s-55 -125 -125 -125s-125 55 -125 125s55 125 125 125zM277 755c-32 0 -57 -26 -57 -58s25 -57 57 -57s57 25 57 57s-25 58 -57 58zM364 261c-54 -25 -99 -28 -127 -36c-45 -13 -67 -30 -67 -71c0 -40 27 -64 74 -64c72 0 120 47 120 121
v50zM500 400v-302c0 -28 5 -49 5 -63c0 -33 -22 -54 -61 -54c-53 0 -77 26 -78 85c-35 -55 -94 -85 -171 -85c-101 0 -161 60 -161 165c0 102 48 146 157 169c66 14 118 14 149 24c14 5 22 18 22 40c0 44 -26 60 -87 60c-34 0 -61 -10 -81 -27c-23 -21 -40 -53 -79 -53
c-32 0 -57 25 -57 58c0 64 83 133 212 133c150 0 230 -54 230 -150z" />
    <glyph glyph-name="atilde" unicode="&#xe3;" horiz-adv-x="562" 
d="M500 400v-302c0 -28 5 -49 5 -63c0 -33 -22 -54 -61 -54c-53 0 -77 26 -78 85c-35 -55 -94 -85 -171 -85c-101 0 -161 60 -161 165c0 102 48 146 157 169c66 14 118 14 149 24c14 5 22 18 22 40c0 44 -26 60 -87 60c-34 0 -61 -10 -81 -27c-23 -21 -40 -53 -79 -53
c-32 0 -57 25 -57 58c0 64 83 133 212 133c150 0 230 -54 230 -150zM364 261c-54 -25 -99 -28 -127 -36c-45 -13 -67 -30 -67 -71c0 -40 27 -64 74 -64c72 0 120 47 120 121v50zM241 655c-2 1 -4 1 -7 1c-5 0 -10 -1 -13 -4c-15 -17 -24 -32 -50 -32c-23 0 -43 20 -43 45
c0 36 42 81 94 81c16 0 29 -3 39 -8l49 -23c2 -1 5 -1 7 -1c5 0 10 1 13 4c15 18 24 32 48 32c25 0 44 -18 44 -44c0 -36 -42 -82 -93 -82c-17 0 -31 4 -44 10z" />
    <glyph glyph-name="brokenbar" unicode="&#xa6;" 
d="M200 699h101v-370h-101v370zM200 199h101v-370h-101v370z" />
    <glyph glyph-name="ccedilla" unicode="&#xe7;" horiz-adv-x="551" 
d="M504 400c0 -32 -28 -58 -63 -58c-29 0 -47 16 -68 42c-24 29 -44 46 -86 46c-70 0 -104 -56 -104 -166c0 -103 38 -159 105 -159c31 0 52 10 72 33c23 27 37 64 80 64c36 0 65 -28 65 -63c0 -31 -17 -63 -53 -95c-48 -42 -102 -62 -169 -62c-154 0 -248 105 -248 284
c0 178 96 284 252 284c131 0 217 -80 217 -150zM261 0h50v-44h7c76 0 115 -31 115 -93c0 -65 -42 -98 -129 -98c-83 0 -131 18 -131 46c0 17 12 29 26 29c22 0 55 -12 100 -12c33 0 49 11 49 36c0 32 -24 30 -68 34c-17 1 -19 17 -19 52v50z" />
    <glyph glyph-name="copyright" unicode="&#xa9;" horiz-adv-x="833" 
d="M416 722c99 0 189 -37 259 -107c68 -68 105 -159 105 -257c0 -100 -37 -187 -105 -254c-72 -70 -164 -109 -259 -109c-96 0 -185 38 -255 108c-69 69 -107 159 -107 255s37 187 107 258c68 69 156 106 255 106zM417 662c-83 0 -157 -30 -214 -88
c-58 -59 -89 -135 -89 -215c0 -81 31 -156 89 -214s134 -89 214 -89s156 31 216 90c57 56 87 130 87 213c0 82 -31 157 -88 214c-58 58 -132 89 -215 89zM592 438h-92c-5 46 -36 72 -84 72c-57 0 -95 -53 -95 -151c0 -96 35 -147 99 -147c47 0 77 28 83 79h94
c-5 -90 -76 -150 -180 -150c-120 0 -196 81 -196 215c0 136 79 220 197 220c100 0 169 -56 174 -138z" />
    <glyph glyph-name="degree" unicode="&#xb0;" horiz-adv-x="329" 
d="M165 715c82 0 148 -67 148 -149c0 -81 -66 -148 -149 -148c-82 0 -147 65 -147 148s66 149 148 149zM165 652c-47 0 -86 -38 -86 -85c0 -48 38 -86 86 -86s85 40 85 86c0 47 -38 85 -85 85z" />
    <glyph glyph-name="divide" unicode="&#xf7;" horiz-adv-x="833" 
d="M417 564c40 0 74 -33 74 -74c0 -40 -32 -74 -74 -74c-41 0 -74 33 -74 74c0 42 34 74 74 74zM124 347h585v-97h-585v97zM417 180c40 0 74 -33 74 -74c0 -39 -33 -73 -74 -73s-74 32 -74 73c0 42 34 74 74 74z" />
    <glyph glyph-name="eacute" unicode="&#xe9;" horiz-adv-x="570" 
d="M391 321c-3 72 -39 110 -105 110c-62 0 -98 -38 -104 -110h209zM182 228c3 -83 44 -128 115 -128c34 0 61 10 81 27c25 22 42 42 73 42c32 0 56 -23 56 -54c0 -22 -12 -44 -35 -66c-45 -43 -111 -67 -187 -67c-151 0 -250 108 -250 287c0 174 95 281 248 281
c156 0 254 -103 254 -261c0 -59 -23 -61 -76 -61h-279zM371 700l-81 -90c-10 -11 -17 -16 -34 -16c-23 0 -41 18 -41 38c0 9 4 18 10 29l63 108c10 17 25 25 42 25c34 0 58 -24 58 -54c0 -14 -6 -28 -17 -40z" />
    <glyph glyph-name="ecircumflex" unicode="&#xea;" horiz-adv-x="570" 
d="M391 321c-3 72 -39 110 -105 110c-62 0 -98 -38 -104 -110h209zM182 228c3 -83 44 -128 115 -128c34 0 61 10 81 27c25 22 42 42 73 42c32 0 56 -23 56 -54c0 -22 -12 -44 -35 -66c-45 -43 -111 -67 -187 -67c-151 0 -250 108 -250 287c0 174 95 281 248 281
c156 0 254 -103 254 -261c0 -59 -23 -61 -76 -61h-279zM285 702l-46 -78c-12 -20 -22 -30 -42 -30c-23 0 -42 21 -42 42c0 5 1 10 4 15l47 88c15 29 39 37 79 37s64 -8 79 -37l46 -87c3 -5 3 -10 3 -16c0 -23 -19 -42 -40 -42c-20 0 -30 10 -42 30z" />
    <glyph glyph-name="edieresis" unicode="&#xeb;" horiz-adv-x="570" 
d="M391 321c-3 72 -39 110 -105 110c-62 0 -98 -38 -104 -110h209zM182 228c3 -83 44 -128 115 -128c34 0 61 10 81 27c25 22 42 42 73 42c32 0 56 -23 56 -54c0 -22 -12 -44 -35 -66c-45 -43 -111 -67 -187 -67c-151 0 -250 108 -250 287c0 174 95 281 248 281
c156 0 254 -103 254 -261c0 -59 -23 -61 -76 -61h-279zM199 751c39 0 69 -30 69 -69c0 -38 -31 -69 -69 -69c-37 0 -69 33 -69 70s31 68 69 68zM369 751c39 0 69 -30 69 -69c0 -38 -31 -69 -69 -69c-37 0 -69 33 -69 70s31 68 69 68z" />
    <glyph glyph-name="egrave" unicode="&#xe8;" horiz-adv-x="570" 
d="M391 321c-3 72 -39 110 -105 110c-62 0 -98 -38 -104 -110h209zM182 228c3 -83 44 -128 115 -128c34 0 61 10 81 27c25 22 42 42 73 42c32 0 56 -23 56 -54c0 -22 -12 -44 -35 -66c-45 -43 -111 -67 -187 -67c-151 0 -250 108 -250 287c0 174 95 281 248 281
c156 0 254 -103 254 -261c0 -59 -23 -61 -76 -61h-279zM285 769l61 -109c6 -11 9 -20 9 -29c0 -19 -17 -37 -41 -37c-18 0 -25 6 -34 17l-79 91c-11 12 -16 27 -16 40c0 29 25 54 56 54c20 0 34 -9 44 -27z" />
    <glyph glyph-name="eth" unicode="&#xf0;" horiz-adv-x="609" 
d="M304 406c-78 0 -125 -54 -125 -152c0 -99 46 -153 125 -153s124 54 124 153c0 98 -46 152 -124 152zM352 490c-24 32 -58 60 -98 88l-114 -56c-7 -3 -14 -5 -19 -5c-16 0 -29 13 -29 33c0 10 7 21 21 28l79 40c-55 30 -86 43 -86 72c0 22 19 41 39 41
c22 0 76 -23 164 -66l113 55c7 3 14 5 20 5c15 0 28 -14 28 -33c0 -11 -6 -20 -20 -27l-81 -41c140 -99 206 -219 206 -377c0 -162 -102 -265 -271 -265s-269 100 -269 265c0 159 102 262 235 262c28 0 55 -6 82 -19z" />
    <glyph glyph-name="iacute" unicode="&#xed;" horiz-adv-x="272" 
d="M207 70c0 -53 -24 -79 -71 -79s-71 26 -71 79v391c0 53 24 80 71 80s71 -27 71 -80v-391zM222 700l-81 -90c-10 -11 -17 -16 -34 -16c-23 0 -41 18 -41 38c0 9 4 18 10 29l63 108c10 17 25 25 42 25c34 0 58 -24 58 -54c0 -14 -6 -28 -17 -40z" />
    <glyph glyph-name="icircumflex" unicode="&#xee;" horiz-adv-x="272" 
d="M207 70c0 -53 -24 -79 -71 -79s-71 26 -71 79v391c0 53 24 80 71 80s71 -27 71 -80v-391zM136 702l-46 -78c-12 -20 -22 -30 -42 -30c-23 0 -42 21 -42 42c0 5 1 10 4 15l47 88c15 29 39 37 79 37s64 -8 79 -37l46 -87c3 -5 3 -10 3 -16c0 -23 -19 -42 -40 -42
c-20 0 -30 10 -42 30z" />
    <glyph glyph-name="idieresis" unicode="&#xef;" horiz-adv-x="272" 
d="M207 70c0 -53 -24 -79 -71 -79s-71 26 -71 79v391c0 53 24 80 71 80s71 -27 71 -80v-391zM50 751c39 0 69 -30 69 -69c0 -38 -31 -69 -69 -69c-37 0 -69 33 -69 70s31 68 69 68zM220 751c39 0 69 -30 69 -69c0 -38 -31 -69 -69 -69c-37 0 -69 33 -69 70s31 68 69 68z" />
    <glyph glyph-name="igrave" unicode="&#xec;" horiz-adv-x="272" 
d="M207 70c0 -53 -24 -79 -71 -79s-71 26 -71 79v391c0 53 24 80 71 80s71 -27 71 -80v-391zM136 769l61 -109c6 -11 9 -20 9 -29c0 -19 -17 -37 -41 -37c-18 0 -25 6 -34 17l-79 91c-11 12 -16 27 -16 40c0 29 25 54 56 54c20 0 34 -9 44 -27z" />
    <glyph glyph-name="logicalnot" unicode="&#xac;" horiz-adv-x="833" 
d="M124 422h585v-245h-97v149h-488v96z" />
    <glyph glyph-name="minus" unicode="&#x2212;" horiz-adv-x="833" 
d="M124 348h585v-99h-585v99z" />
    <glyph glyph-name="mu" unicode="&#xb5;" horiz-adv-x="610" 
d="M100 533h141l-37 -212c-12 -66 -15 -111 -15 -131c0 -61 27 -90 83 -90c70 0 99 57 121 182l44 251h141l-94 -533h-131l9 57c-27 -50 -59 -73 -105 -73c-44 0 -77 19 -104 59l-44 -257h-140z" />
    <glyph glyph-name="multiply" unicode="&#xd7;" horiz-adv-x="833" 
d="M203 587l220 -220l220 220l69 -68l-220 -221l220 -220l-69 -68l-220 220l-220 -220l-68 68l220 220l-220 221z" />
    <glyph glyph-name="ntilde" unicode="&#xf1;" horiz-adv-x="597" 
d="M204 70c0 -53 -24 -79 -71 -79s-71 26 -71 79v391c0 53 23 80 71 80c42 0 62 -21 65 -65l2 -18c34 57 90 92 162 92c117 0 175 -66 175 -188v-292c0 -53 -24 -79 -71 -79s-71 26 -71 79v251c0 72 -21 106 -82 106c-66 0 -109 -42 -109 -112v-245zM275 655c-2 1 -4 1 -7 1
c-5 0 -10 -1 -13 -4c-15 -17 -24 -32 -50 -32c-23 0 -43 20 -43 45c0 36 42 81 94 81c16 0 29 -3 39 -8l49 -23c2 -1 5 -1 7 -1c5 0 10 1 13 4c15 18 24 32 48 32c25 0 44 -18 44 -44c0 -36 -42 -82 -93 -82c-17 0 -31 4 -44 10z" />
    <glyph glyph-name="oacute" unicode="&#xf3;" horiz-adv-x="608" 
d="M304 550c167 0 269 -107 269 -284s-102 -284 -269 -284s-269 107 -269 284s102 284 269 284zM304 430c-79 0 -125 -58 -125 -164s46 -165 125 -165s124 59 124 165s-46 164 -124 164zM390 700l-81 -90c-10 -11 -17 -16 -34 -16c-23 0 -41 18 -41 38c0 9 4 18 10 29
l63 108c10 17 25 25 42 25c34 0 58 -24 58 -54c0 -14 -6 -28 -17 -40z" />
    <glyph glyph-name="ocircumflex" unicode="&#xf4;" horiz-adv-x="608" 
d="M304 550c167 0 269 -107 269 -284s-102 -284 -269 -284s-269 107 -269 284s102 284 269 284zM304 430c-79 0 -125 -58 -125 -164s46 -165 125 -165s124 59 124 165s-46 164 -124 164zM304 702l-46 -78c-12 -20 -22 -30 -42 -30c-23 0 -42 21 -42 42c0 5 1 10 4 15l47 88
c15 29 39 37 79 37s64 -8 79 -37l46 -87c3 -5 3 -10 3 -16c0 -23 -19 -42 -40 -42c-20 0 -30 10 -42 30z" />
    <glyph glyph-name="odieresis" unicode="&#xf6;" horiz-adv-x="608" 
d="M304 550c167 0 269 -107 269 -284s-102 -284 -269 -284s-269 107 -269 284s102 284 269 284zM304 430c-79 0 -125 -58 -125 -164s46 -165 125 -165s124 59 124 165s-46 164 -124 164zM218 751c39 0 69 -30 69 -69c0 -38 -31 -69 -69 -69c-37 0 -69 33 -69 70s31 68 69 68
zM388 751c39 0 69 -30 69 -69c0 -38 -31 -69 -69 -69c-37 0 -69 33 -69 70s31 68 69 68z" />
    <glyph glyph-name="ograve" unicode="&#xf2;" horiz-adv-x="608" 
d="M304 550c167 0 269 -107 269 -284s-102 -284 -269 -284s-269 107 -269 284s102 284 269 284zM304 430c-79 0 -125 -58 -125 -164s46 -165 125 -165s124 59 124 165s-46 164 -124 164zM304 769l61 -109c6 -11 9 -20 9 -29c0 -19 -17 -37 -41 -37c-18 0 -25 6 -34 17
l-79 91c-11 12 -16 27 -16 40c0 29 25 54 56 54c20 0 34 -9 44 -27z" />
    <glyph glyph-name="onehalf" unicode="&#xbd;" horiz-adv-x="882" 
d="M155 567h-77c-21 0 -32 9 -32 28c0 14 8 23 19 25c15 3 36 3 62 11c20 5 27 18 38 33c10 14 15 26 39 26c25 0 38 -11 38 -33v-322c0 -28 -15 -41 -43 -41c-29 0 -44 13 -44 41v232zM600 689c8 14 18 21 32 21c19 0 36 -16 36 -35c0 -6 -2 -13 -7 -21l-381 -653
c-8 -13 -19 -21 -33 -21c-19 0 -34 15 -34 34c0 5 2 13 7 21zM647 67h169c26 0 39 -12 39 -34s-13 -33 -39 -33h-216c-38 0 -55 13 -55 41c0 47 47 88 133 137c53 31 84 49 84 92c0 34 -25 56 -65 56c-38 0 -58 -16 -68 -51c-7 -23 -14 -37 -42 -37c-25 0 -40 14 -40 38
c0 23 15 54 39 77c29 26 65 38 111 38c98 0 155 -48 155 -120c0 -62 -37 -93 -104 -133c-53 -32 -91 -48 -101 -71z" />
    <glyph glyph-name="onequarter" unicode="&#xbc;" horiz-adv-x="882" 
d="M155 567h-77c-21 0 -32 9 -32 28c0 14 8 23 19 25c15 3 36 3 62 11c20 5 27 18 38 33c10 14 15 26 39 26c25 0 38 -11 38 -33v-322c0 -28 -15 -41 -43 -41c-29 0 -44 13 -44 41v232zM600 689c8 14 18 21 32 21c19 0 36 -16 36 -35c0 -6 -2 -13 -7 -21l-381 -653
c-8 -13 -19 -21 -33 -21c-19 0 -34 15 -34 34c0 5 2 13 7 21zM576 85c-27 0 -42 14 -42 40c0 22 16 44 37 73l104 146c23 32 49 48 81 48c36 0 54 -17 54 -52v-193h21c25 0 38 -11 38 -31c0 -21 -13 -31 -38 -31h-21v-49c0 -27 -15 -41 -43 -41s-43 14 -43 41v49h-148z
M726 312l-119 -167h119v167z" />
    <glyph glyph-name="onesuperior" unicode="&#xb9;" horiz-adv-x="374" 
d="M163 559h-81c-22 0 -34 10 -34 30c0 15 8 25 19 27c16 3 39 3 66 11c20 6 28 20 39 36c11 15 16 28 42 28s40 -12 40 -36v-345c0 -29 -16 -43 -46 -43s-45 14 -45 43v249z" />
    <glyph glyph-name="otilde" unicode="&#xf5;" horiz-adv-x="608" 
d="M304 550c167 0 269 -107 269 -284s-102 -284 -269 -284s-269 107 -269 284s102 284 269 284zM304 430c-79 0 -125 -58 -125 -164s46 -165 125 -165s124 59 124 165s-46 164 -124 164zM271 655c-2 1 -4 1 -7 1c-5 0 -10 -1 -13 -4c-15 -17 -24 -32 -50 -32
c-23 0 -43 20 -43 45c0 36 42 81 94 81c16 0 29 -3 39 -8l49 -23c2 -1 5 -1 7 -1c5 0 10 1 13 4c15 18 24 32 48 32c25 0 44 -18 44 -44c0 -36 -42 -82 -93 -82c-17 0 -31 4 -44 10z" />
    <glyph glyph-name="plusminus" unicode="&#xb1;" horiz-adv-x="833" 
d="M367 597h99v-159h243v-97h-243v-159h-99v159h-243v97h243v159zM124 96h585v-97h-585v97z" />
    <glyph glyph-name="registered" unicode="&#xae;" horiz-adv-x="833" 
d="M416 722c100 0 191 -38 261 -109c67 -68 103 -158 103 -255c0 -100 -38 -190 -107 -257c-71 -69 -163 -106 -257 -106c-97 0 -188 39 -258 110c-68 69 -104 159 -104 253c0 65 17 128 53 189c65 110 178 175 309 175zM417 662c-82 0 -154 -29 -211 -86
c-59 -59 -92 -137 -92 -217s30 -155 87 -212c58 -59 135 -92 215 -92c79 0 155 32 215 89c57 55 89 131 89 209c0 87 -29 160 -86 218c-59 60 -133 91 -217 91zM266 567h158c115 0 172 -39 172 -116c0 -53 -33 -93 -88 -107l90 -180h-109l-77 165h-48v-165h-98v403zM364 505
v-117h48c56 0 83 17 83 57c0 42 -29 60 -88 60h-43z" />
    <glyph glyph-name="scaron" unicode="&#x161;" horiz-adv-x="546" 
d="M232 213c-126 30 -184 73 -184 160c0 107 82 177 218 177c127 0 207 -57 207 -115c0 -33 -25 -57 -59 -57c-28 0 -48 19 -78 42c-14 11 -44 21 -70 21c-53 0 -79 -17 -79 -50c0 -30 28 -39 101 -55l44 -10c124 -27 183 -66 183 -159c0 -120 -86 -185 -249 -185
c-136 0 -219 65 -219 131c0 38 27 64 64 64c38 0 53 -27 78 -52c24 -24 53 -32 95 -32c58 0 88 20 88 53c0 34 -23 39 -85 54zM273 668l46 79c11 20 21 29 41 29c21 0 42 -18 42 -42c0 -5 -2 -11 -4 -15l-47 -88c-15 -29 -38 -37 -78 -37s-63 7 -79 37l-46 88
c-3 5 -4 11 -4 17c0 21 18 40 41 40c19 0 30 -9 41 -29z" />
    <glyph glyph-name="thorn" unicode="&#xfe;" horiz-adv-x="613" 
d="M65 650c0 53 23 79 69 79s69 -26 69 -79v-188c39 59 88 87 155 87c129 0 220 -111 220 -281c0 -175 -94 -286 -218 -286c-68 0 -122 29 -157 84v-202c0 -53 -23 -79 -69 -79s-69 26 -69 79v786zM319 427c-73 0 -116 -55 -116 -159c0 -106 43 -163 119 -163
c70 0 115 58 115 157c0 108 -42 165 -118 165z" />
    <glyph glyph-name="threequarters" unicode="&#xbe;" horiz-adv-x="881" 
d="M265 507c45 -18 69 -49 69 -92c0 -77 -61 -127 -162 -127c-39 0 -69 6 -96 21c-34 20 -54 49 -54 76c0 24 16 39 40 39c29 0 38 -19 53 -49c7 -13 27 -23 54 -23c48 0 72 21 72 60c0 31 -18 51 -55 57c-24 4 -47 -1 -47 28c0 27 22 24 48 31c28 7 42 24 42 50
c0 31 -22 50 -58 50c-23 0 -42 -8 -51 -21c-6 -9 -8 -22 -19 -34c-7 -8 -18 -12 -31 -12c-24 0 -39 12 -39 33c0 51 57 96 143 96c89 0 144 -42 144 -106c0 -34 -17 -60 -53 -77zM600 689c8 14 18 21 32 21c19 0 36 -16 36 -35c0 -6 -2 -13 -7 -21l-381 -653
c-8 -13 -19 -21 -33 -21c-19 0 -34 15 -34 34c0 5 2 13 7 21zM576 85c-27 0 -42 14 -42 40c0 22 16 44 37 73l104 146c23 32 49 48 81 48c36 0 54 -17 54 -52v-193h21c25 0 38 -11 38 -31c0 -21 -13 -31 -38 -31h-21v-49c0 -27 -15 -41 -43 -41s-43 14 -43 41v49h-148z
M726 312l-119 -167h119v167z" />
    <glyph glyph-name="threesuperior" unicode="&#xb3;" horiz-adv-x="374" 
d="M278 495c47 -19 72 -53 72 -98c0 -84 -64 -137 -170 -137c-41 0 -72 7 -100 23c-36 21 -57 53 -57 81c0 26 17 42 42 42c30 0 39 -20 56 -52c7 -14 28 -25 57 -25c49 0 75 22 75 64c0 33 -19 54 -58 61c-25 4 -49 -1 -49 30c0 29 22 26 50 33c30 8 44 26 44 54
c0 33 -24 53 -61 53c-24 0 -44 -8 -53 -22c-7 -10 -9 -24 -20 -36c-8 -9 -20 -14 -33 -14c-25 0 -40 13 -40 36c0 54 59 103 149 103c94 0 151 -45 151 -114c0 -36 -18 -64 -55 -82z" />
    <glyph glyph-name="trademark" unicode="&#x2122;" horiz-adv-x="833" 
d="M101 714h237v-55h-82v-212h-73v212h-82v55zM392 714h96l62 -162l60 162h96v-267h-66v200l-75 -200h-30l-77 200v-200h-66v267z" />
    <glyph glyph-name="twosuperior" unicode="&#xb2;" horiz-adv-x="374" 
d="M129 343h177c27 0 41 -12 41 -36c0 -23 -14 -35 -41 -35h-227c-39 0 -57 14 -57 44c0 51 49 95 139 147c56 33 88 53 88 98c0 37 -26 60 -68 60c-39 0 -61 -17 -71 -54c-7 -25 -15 -40 -44 -40c-26 0 -42 15 -42 41c0 24 16 57 41 82c30 28 68 41 117 41
c102 0 161 -51 161 -129c0 -66 -38 -99 -108 -142c-55 -35 -96 -52 -106 -77z" />
    <glyph glyph-name="uacute" unicode="&#xfa;" horiz-adv-x="597" 
d="M393 461c0 53 24 80 71 80s71 -27 71 -80v-391c0 -54 -23 -79 -71 -79c-42 0 -62 21 -65 65l-2 18c-34 -57 -90 -88 -162 -88c-117 0 -175 61 -175 183v292c0 53 24 80 71 80s71 -27 71 -80v-251c0 -72 21 -105 82 -105c66 0 109 41 109 111v245zM385 700l-81 -90
c-10 -11 -17 -16 -34 -16c-23 0 -41 18 -41 38c0 9 4 18 10 29l63 108c10 17 25 25 42 25c34 0 58 -24 58 -54c0 -14 -6 -28 -17 -40z" />
    <glyph glyph-name="ucircumflex" unicode="&#xfb;" horiz-adv-x="597" 
d="M393 461c0 53 24 80 71 80s71 -27 71 -80v-391c0 -54 -23 -79 -71 -79c-42 0 -62 21 -65 65l-2 18c-34 -57 -90 -88 -162 -88c-117 0 -175 61 -175 183v292c0 53 24 80 71 80s71 -27 71 -80v-251c0 -72 21 -105 82 -105c66 0 109 41 109 111v245zM299 702l-46 -78
c-12 -20 -22 -30 -42 -30c-23 0 -42 21 -42 42c0 5 1 10 4 15l47 88c15 29 39 37 79 37s64 -8 79 -37l46 -87c3 -5 3 -10 3 -16c0 -23 -19 -42 -40 -42c-20 0 -30 10 -42 30z" />
    <glyph glyph-name="udieresis" unicode="&#xfc;" horiz-adv-x="597" 
d="M393 461c0 53 24 80 71 80s71 -27 71 -80v-391c0 -54 -23 -79 -71 -79c-42 0 -62 21 -65 65l-2 18c-34 -57 -90 -88 -162 -88c-117 0 -175 61 -175 183v292c0 53 24 80 71 80s71 -27 71 -80v-251c0 -72 21 -105 82 -105c66 0 109 41 109 111v245zM213 751
c39 0 69 -30 69 -69c0 -38 -31 -69 -69 -69c-37 0 -69 33 -69 70s31 68 69 68zM383 751c39 0 69 -30 69 -69c0 -38 -31 -69 -69 -69c-37 0 -69 33 -69 70s31 68 69 68z" />
    <glyph glyph-name="ugrave" unicode="&#xf9;" horiz-adv-x="597" 
d="M393 461c0 53 24 80 71 80s71 -27 71 -80v-391c0 -54 -23 -79 -71 -79c-42 0 -62 21 -65 65l-2 18c-34 -57 -90 -88 -162 -88c-117 0 -175 61 -175 183v292c0 53 24 80 71 80s71 -27 71 -80v-251c0 -72 21 -105 82 -105c66 0 109 41 109 111v245zM299 769l61 -109
c6 -11 9 -20 9 -29c0 -19 -17 -37 -41 -37c-18 0 -25 6 -34 17l-79 91c-11 12 -16 27 -16 40c0 29 25 54 56 54c20 0 34 -9 44 -27z" />
    <glyph glyph-name="yacute" unicode="&#xfd;" horiz-adv-x="537" 
d="M40 435c-5 13 -7 26 -7 37c0 39 31 69 71 69c39 0 60 -21 73 -65l97 -328l95 330c12 43 34 64 69 64c42 0 70 -24 70 -62c0 -10 -3 -24 -9 -41l-185 -534c-28 -82 -75 -120 -152 -120c-61 0 -91 17 -91 59c0 37 19 51 60 57c38 5 56 16 66 55l6 20zM355 700l-81 -90
c-10 -11 -17 -16 -34 -16c-23 0 -41 18 -41 38c0 9 4 18 10 29l63 108c10 17 25 25 42 25c34 0 58 -24 58 -54c0 -14 -6 -28 -17 -40z" />
    <glyph glyph-name="ydieresis" unicode="&#xff;" horiz-adv-x="537" 
d="M40 435c-5 13 -7 26 -7 37c0 39 31 69 71 69c39 0 60 -21 73 -65l97 -328l95 330c12 43 34 64 69 64c42 0 70 -24 70 -62c0 -10 -3 -24 -9 -41l-185 -534c-28 -82 -75 -120 -152 -120c-61 0 -91 17 -91 59c0 37 19 51 60 57c38 5 56 16 66 55l6 20zM183 751
c39 0 69 -30 69 -69c0 -38 -31 -69 -69 -69c-37 0 -69 33 -69 70s31 68 69 68zM353 751c39 0 69 -30 69 -69c0 -38 -31 -69 -69 -69c-37 0 -69 33 -69 70s31 68 69 68z" />
    <glyph glyph-name="zcaron" unicode="&#x17e;" horiz-adv-x="506" 
d="M86 418c-42 0 -63 20 -63 57c0 38 21 56 63 56h322c58 0 86 -21 86 -67c0 -21 -8 -40 -25 -57l-278 -289h243c44 0 66 -20 66 -59s-22 -59 -66 -59h-367c-41 0 -66 25 -66 62c0 18 7 36 21 51l286 305h-222zM253 668l46 79c11 20 21 29 41 29c21 0 42 -18 42 -42
c0 -5 -2 -11 -4 -15l-47 -88c-15 -29 -38 -37 -78 -37s-63 7 -79 37l-46 88c-3 5 -4 11 -4 17c0 21 18 40 41 40c19 0 30 -9 41 -29z" />
    </font>
</defs>
</svg>
